<svg id="Layer_1" data-name="Layer 1" xmlns="http://www.w3.org/2000/svg" viewBox="0 0 9000 6000"><defs><style>.cls-1{opacity:0.1;}.cls-2{fill:#458edd;}.cls-3{opacity:0.28;}.cls-4{fill:#54a0ff;}.cls-5{fill:#2982d3;}.cls-6{opacity:0.34;}.cls-7{fill:#223040;}.cls-8{fill:#c0deff;}.cls-9{opacity:0.12;}.cls-10{opacity:0.88;}.cls-11{opacity:0.76;}.cls-12{opacity:0.71;}.cls-13{opacity:0.59;}.cls-14{opacity:0.29;}.cls-15{opacity:0.17;}.cls-16{opacity:0.11;}.cls-17{opacity:0.07;}.cls-18{opacity:0.16;}.cls-19{fill:#fff;}.cls-20{fill:#2a80dd;}.cls-21{opacity:0.13;}.cls-22{fill:#ff9f42;}.cls-23{fill:#ea8028;}.cls-24{opacity:0.09;}.cls-25{opacity:0.91;}.cls-26{opacity:0.25;}.cls-27{opacity:0.43;}.cls-28{opacity:0.04;}.cls-29{opacity:0.82;}.cls-30{fill:#f9ddc5;}.cls-31{fill:#feca58;}.cls-32{opacity:0.33;}.cls-33{opacity:0.39;}.cls-34{opacity:0.68;}.cls-35{fill:#25197c;}.cls-36{fill:#1a1466;}.cls-37{opacity:0.4;}.cls-38{opacity:0.2;}.cls-39{fill:#1e1147;}.cls-40{opacity:0.38;}.cls-41{fill:#2a2f35;}</style></defs><g class="cls-1"><path class="cls-2" d="M1982.5,5671.3c-587.83-1583.46-446.91-2161.42-191-2388.33,614.88-545.15,2222.69,644.21,3125.72-130.71,243.23-208.72,335.27-474.08,760-681.25,136.33-66.5,612-298.52,1067.89-130.7,680.59,250.54,838.22,1216,896.4,1572.42,122.76,752-75.29,1382.26-226.05,1738.77Z"/></g><g class="cls-3"><path class="cls-4" d="M7006.55,5623.22s-197.68-783.16,51-786.82S7262,5252.62,7262,5252.62s52.17-267.53,263.22-252.45.86,391.8.86,391.8,161.59-199.37,289.79-162.34-219.43,392.73-219.43,392.73Z"/></g><g class="cls-3"><path class="cls-2" d="M7049.82,5623.24s-158.57-573.41,41.08-576.13,164,304.73,164,304.73,41.92-195.9,211.35-184.89.63,286.88.63,286.88,129.75-146,232.67-118.91-176.22,287.6-176.22,287.6Z"/></g><g class="cls-3"><path class="cls-5" d="M7131.65,5623.21s-95.82-285.16,25-286.56,99.19,151.53,99.19,151.53,25.41-97.45,127.93-92,.32,142.68.32,142.68,78.55-72.65,140.82-59.2-106.7,143.09-106.7,143.09Z"/></g><g class="cls-3"><path class="cls-4" d="M2092.51,5623.36S1822.1,4552.05,2162.3,4547s279.61,569.37,279.61,569.37,71.35-366,360.06-345.34,1.18,536,1.18,536,221-272.72,396.42-222.06-300.17,537.23-300.17,537.23Z"/></g><g class="cls-3"><path class="cls-2" d="M2151.71,5623.39S1934.8,4839,2207.9,4835.28s224.38,416.86,224.38,416.86,57.34-268,289.1-252.92.87,392.43.87,392.43,177.49-199.72,318.27-162.66-241.05,393.42-241.05,393.42Z"/></g><g class="cls-3"><path class="cls-5" d="M2263.64,5623.35s-131.08-390.08,34.19-392,135.68,207.28,135.68,207.28,34.76-133.3,175-125.87S2609,5508,2609,5508s107.46-99.38,192.64-81-146,195.73-146,195.73Z"/></g><path class="cls-4" d="M6782.85,4838.23v766.5a17.68,17.68,0,0,1-17.63,17.63h-74.07a17.65,17.65,0,0,1-17.63-17.63v-766.5a17.66,17.66,0,0,1,17.63-17.63h74.07A17.69,17.69,0,0,1,6782.85,4838.23Z"/><g class="cls-6"><path class="cls-7" d="M6782.85,4838.23v82.26H6673.52v-82.26a17.66,17.66,0,0,1,17.63-17.63h74.07A17.69,17.69,0,0,1,6782.85,4838.23Z"/></g><path class="cls-4" d="M6961,4405.43l-18.81,42.11L6780.3,4810.07a19.62,19.62,0,0,1-25.85,9.87l-75.17-33.57a19.62,19.62,0,0,1-9.87-25.85l139.76-313,40.93-91.66A19.65,19.65,0,0,1,6876,4346l75.13,33.57A19.62,19.62,0,0,1,6961,4405.43Z"/><g class="cls-6"><path class="cls-7" d="M6961,4405.43l-18.81,42.11H6809.17l40.93-91.66A19.65,19.65,0,0,1,6876,4346l75.13,33.57A19.62,19.62,0,0,1,6961,4405.43Z"/></g><rect class="cls-8" x="6211.49" y="4733.17" width="970.36" height="148.16" rx="35.92"/><path class="cls-8" d="M7404,3728.43l-66.59,658.39a37.21,37.21,0,0,1-37.21,37.21H6500a37.17,37.17,0,0,1-37.21-37.21l66.59-658.39a37.2,37.2,0,0,1,37.21-37.21h800.23a37.16,37.16,0,0,1,26.52,11.08,39.64,39.64,0,0,1,4.78,6A37.27,37.27,0,0,1,7404,3728.43Z"/><path class="cls-8" d="M7364.85,3728.43l-66.59,658.39a37.22,37.22,0,0,1-37.21,37.21H6500a37.17,37.17,0,0,1-37.21-37.21l66.59-658.39a37.2,37.2,0,0,1,37.21-37.21h761.06a37.16,37.16,0,0,1,26.52,11.08,39.64,39.64,0,0,1,4.78,6A37.27,37.27,0,0,1,7364.85,3728.43Z"/><g class="cls-9"><path class="cls-7" d="M7404,3728.43l-66.59,658.39a37.21,37.21,0,0,1-37.21,37.21h-39.17a37.22,37.22,0,0,0,37.21-37.21l66.59-658.39a37.27,37.27,0,0,0-5.91-20.17,39.64,39.64,0,0,0-4.78-6,37.16,37.16,0,0,0-26.52-11.08h39.17a37.16,37.16,0,0,1,26.52,11.08,39.64,39.64,0,0,1,4.78,6A37.27,37.27,0,0,1,7404,3728.43Z"/></g><path class="cls-8" d="M7006.47,5622.36H6470.66a10.38,10.38,0,0,1-10.35-10.34v-8.09c0-61,49.88-110.83,110.83-110.83H6906c61,0,110.83,49.87,110.83,110.83V5612A10.37,10.37,0,0,1,7006.47,5622.36Z"/><path class="cls-4" d="M3731.39,719.12,2327.74,2441.91l-22.7,27.87a15,15,0,0,0,11.42,24.41l1407.46,15.06a14.94,14.94,0,0,0,15.13-14.79L3758,728.72C3758.1,714.57,3740.32,708.12,3731.39,719.12ZM3513,1386.74l-9.28,867.34a15,15,0,0,1-15.14,14.78l-661.06-7.07a15,15,0,0,1-11.39-24.5l23-27.78-11.07-.11a15,15,0,0,1-11.39-24.51L3486.55,1377C3495.54,1366.18,3513.19,1372.65,3513,1386.74Z"/><path class="cls-4" d="M3731.39,719.12,2327.74,2441.91l1396.74,14.94a15,15,0,0,0,15.14-14.78L3758,728.72C3758.1,714.57,3740.32,708.12,3731.39,719.12ZM3513,1386.74l-8.72,814.94a15,15,0,0,1-15.14,14.79l-661.06-7.07a15,15,0,0,1-11.39-24.51L3486.55,1377C3495.54,1366.18,3513.19,1372.65,3513,1386.74Z"/><g class="cls-10"><path class="cls-7" d="M3741.15,2298.78l-.5,46.23L3636,2343.89a21.67,21.67,0,0,1-21.44-21.9l0-2.89a21.68,21.68,0,0,1,21.9-21.44Z"/></g><g class="cls-11"><path class="cls-7" d="M3742.76,2147.77l-.49,46.23-104.69-1.12a21.67,21.67,0,0,1-21.44-21.9l0-2.9a21.66,21.66,0,0,1,21.9-21.43Z"/></g><g class="cls-12"><path class="cls-7" d="M3744.28,2006l-.49,46.23-104.7-1.12a21.66,21.66,0,0,1-21.43-21.9l0-2.89a21.68,21.68,0,0,1,21.9-21.44Z"/></g><g class="cls-12"><path class="cls-7" d="M3745.93,1851.89l-.49,46.23-104.7-1.12a21.66,21.66,0,0,1-21.43-21.9l0-2.89a21.66,21.66,0,0,1,21.9-21.44Z"/></g><g class="cls-13"><path class="cls-7" d="M3747.55,1700.87l-.5,46.24L3642.36,1746a21.66,21.66,0,0,1-21.44-21.9l0-2.89a21.68,21.68,0,0,1,21.9-21.44Z"/></g><g class="cls-14"><path class="cls-7" d="M3749.06,1559.1l-.49,46.23-104.69-1.12a21.67,21.67,0,0,1-21.44-21.9l0-2.89a21.67,21.67,0,0,1,21.9-21.44Z"/></g><g class="cls-15"><path class="cls-7" d="M3751,1380.35l-.5,46.23-104.69-1.12a21.67,21.67,0,0,1-21.44-21.9l0-2.9a21.67,21.67,0,0,1,21.9-21.43Z"/></g><g class="cls-16"><path class="cls-7" d="M3752.59,1229.33l-.49,46.23-104.7-1.12a21.67,21.67,0,0,1-21.43-21.9l0-2.9a21.67,21.67,0,0,1,21.9-21.43Z"/></g><g class="cls-16"><path class="cls-7" d="M3754.11,1087.56l-.49,46.23-104.7-1.12a21.68,21.68,0,0,1-21.44-21.9l0-2.9a21.65,21.65,0,0,1,21.9-21.43Z"/></g><g class="cls-17"><path d="M3634.46,1093.06a23.1,23.1,0,0,0,15.91,39.62l103.25,1.11.49-46.23-103.25-1.11A23,23,0,0,0,3634.46,1093.06Zm-8.48,158a23.12,23.12,0,0,0,22.87,23.36l103.25,1.11.49-46.23-103.24-1.11a23.17,23.17,0,0,0-23.37,22.87Zm-1.61,151a23.12,23.12,0,0,0,22.87,23.36l103.24,1.11.5-46.23-103.25-1.11a23.15,23.15,0,0,0-23.36,22.87Zm-1.92,178.76a23.13,23.13,0,0,0,22.87,23.36l103.25,1.1.49-46.23-103.24-1.1a23.15,23.15,0,0,0-23.37,22.87Zm-1.51,141.77a23.12,23.12,0,0,0,22.87,23.36l103.24,1.11.5-46.24-103.25-1.1a23.15,23.15,0,0,0-23.36,22.87Zm-1.62,151a23.12,23.12,0,0,0,22.87,23.36l103.25,1.1.49-46.23-103.25-1.1a23.15,23.15,0,0,0-23.36,22.87Zm-1.65,154.1a23.13,23.13,0,0,0,22.87,23.36l103.25,1.1.49-46.23-103.25-1.1a23.15,23.15,0,0,0-23.36,22.87Zm-1.51,141.77a23.12,23.12,0,0,0,22.86,23.36l103.25,1.11.49-46.23-103.24-1.11a23.15,23.15,0,0,0-23.36,22.87Zm-1.62,151a23.12,23.12,0,0,0,22.87,23.36l103.24,1.1.5-46.23-103.25-1.1a23.13,23.13,0,0,0-23.36,22.87Zm109.94,136.3-1396.74-14.94-22.7,27.87a15,15,0,0,0,11.42,24.41l1407.46,15.06a14.94,14.94,0,0,0,15.13-14.79l.57-52.39A15,15,0,0,1,3724.48,2456.85Z"/></g><path class="cls-4" d="M3634.46,1093.06a23.1,23.1,0,0,0,15.91,39.62l103.25,1.11.49-46.23-103.25-1.11A23,23,0,0,0,3634.46,1093.06Zm-8.48,158a23.12,23.12,0,0,0,22.87,23.36l103.25,1.11.49-46.23-103.24-1.11a23.17,23.17,0,0,0-23.37,22.87Zm-1.61,151a23.12,23.12,0,0,0,22.87,23.36l103.24,1.11.5-46.23-103.25-1.11a23.15,23.15,0,0,0-23.36,22.87Zm-1.92,178.76a23.13,23.13,0,0,0,22.87,23.36l103.25,1.1.49-46.23-103.24-1.1a23.15,23.15,0,0,0-23.37,22.87Zm-1.51,141.77a23.12,23.12,0,0,0,22.87,23.36l103.24,1.11.5-46.24-103.25-1.1a23.15,23.15,0,0,0-23.36,22.87Zm-1.62,151a23.12,23.12,0,0,0,22.87,23.36l103.25,1.1.49-46.23-103.25-1.1a23.15,23.15,0,0,0-23.36,22.87Zm-1.65,154.1a23.13,23.13,0,0,0,22.87,23.36l103.25,1.1.49-46.23-103.25-1.1a23.15,23.15,0,0,0-23.36,22.87Zm-1.51,141.77a23.12,23.12,0,0,0,22.86,23.36l103.25,1.11.49-46.23-103.24-1.11a23.15,23.15,0,0,0-23.36,22.87Zm-1.62,151a23.12,23.12,0,0,0,22.87,23.36l103.24,1.1.5-46.23-103.25-1.1a23.13,23.13,0,0,0-23.36,22.87Z"/><g class="cls-10"><path class="cls-7" d="M3637.9,2297.68l103.25,1.1-.5,46.23-103.24-1.1a23.12,23.12,0,0,1,.49-46.23Z"/></g><g class="cls-11"><path class="cls-7" d="M3639.52,2146.66l103.24,1.11-.49,46.23L3639,2192.89a23.12,23.12,0,0,1,.5-46.23Z"/></g><g class="cls-12"><path class="cls-7" d="M3641,2004.89l103.25,1.1-.49,46.23-103.25-1.1a23.12,23.12,0,0,1,.49-46.23Z"/></g><g class="cls-12"><path class="cls-7" d="M3642.68,1850.79l103.25,1.1-.49,46.23-103.25-1.1a23.12,23.12,0,0,1,.49-46.23Z"/></g><g class="cls-13"><path class="cls-7" d="M3644.3,1699.77l103.25,1.1-.5,46.24L3643.81,1746a23.12,23.12,0,0,1,.49-46.23Z"/></g><g class="cls-14"><path class="cls-7" d="M3645.82,1558l103.24,1.1-.49,46.23-103.25-1.1a23.12,23.12,0,0,1,.5-46.23Z"/></g><g class="cls-15"><path class="cls-7" d="M3647.73,1379.24l103.25,1.11-.5,46.23-103.24-1.11a23.12,23.12,0,0,1,.49-46.23Z"/></g><g class="cls-16"><path class="cls-7" d="M3649.35,1228.22l103.24,1.11-.49,46.23-103.25-1.11a23.12,23.12,0,0,1,.5-46.23Z"/></g><g class="cls-16"><path class="cls-7" d="M3650.86,1086.45l103.25,1.11-.49,46.23-103.25-1.11a23.12,23.12,0,0,1,.49-46.23Z"/></g><g class="cls-18"><ellipse class="cls-19" cx="3454.77" cy="1168.52" rx="51.61" ry="23.74" transform="translate(311.81 3018.56) rotate(-49.17)"/></g><g class="cls-18"><ellipse class="cls-19" cx="3381.97" cy="1249.91" rx="32.51" ry="14.95" transform="translate(225.02 2991.65) rotate(-49.17)"/></g><polygon class="cls-20" points="4610.38 3692.94 4280.01 3681.63 4381.19 1741.85 4589.84 1748.98 4610.38 3692.94"/><path class="cls-4" d="M4990.05,1091.23l-401.8,739.29-208.94-7.15-350.34-765c104.58-75.81,242.14-217.89,346.24-332.25,45.19-49.62,84.05-94,111.18-125.49l9,558.18a83.11,83.11,0,1,0,11.5-.45l53.08-561.48C4639.17,702.52,4845.05,970.16,4990.05,1091.23Z"/><g class="cls-17"><path d="M4445.24,1825.62l-65.93-2.25-350.34-765c104.58-75.81,242.14-217.89,346.24-332.25L4109.58,1046Z"/></g><g class="cls-15"><ellipse class="cls-19" cx="4722.76" cy="909.17" rx="31.54" ry="63.85" transform="translate(650.52 3468.06) rotate(-43.04)"/></g><g class="cls-21"><ellipse class="cls-19" cx="4800.16" cy="992.05" rx="17.58" ry="35.58" transform="translate(614.78 3543.18) rotate(-43.04)"/></g><rect class="cls-22" x="3706.79" y="4766.24" width="467.32" height="856.13"/><polygon class="cls-22" points="4417.11 5622.37 3475 5622.37 3566.22 5057.85 3613.32 4766.24 4293.74 4766.24 4335.76 5057.85 4417.11 5622.37"/><g class="cls-6"><polygon points="4335.76 5057.85 3566.22 5057.85 3613.32 4766.24 4293.74 4766.24 4335.76 5057.85"/></g><path class="cls-23" d="M5022.76,5622.37H2929.17A280.43,280.43,0,0,1,3209.56,5342H4742.37a279.22,279.22,0,0,1,91.93,15.44C4944,5395.48,5022.76,5499.71,5022.76,5622.37Z"/><path class="cls-22" d="M5986,2121.23v2774a64.51,64.51,0,0,1-6.73,28.84,66,66,0,0,1-59.16,36.62H1753.86c-36.38,0-65.89-29.33-65.89-65.46v-2774a65.8,65.8,0,0,1,65.89-65.46H5920.15C5956.53,2055.77,5986,2085.1,5986,2121.23Z"/><path class="cls-22" d="M5986,2121.23v2774a64.51,64.51,0,0,1-6.73,28.84,66,66,0,0,1-59.16,36.62h-52.36l-4029.42-98.59c-36.38,0-65.89-29.34-65.89-65.47L1692.2,2098.13a66,66,0,0,1,61.66-42.36H5920.15C5956.53,2055.77,5986,2085.1,5986,2121.23Z"/><path class="cls-22" d="M5986,3562.79v1332.4a64.51,64.51,0,0,1-6.73,28.84,66,66,0,0,1-59.16,36.62h-52.36l-4029.42-98.59c-36.38,0-65.89-29.34-65.89-65.47L1692.2,2098.13a66,66,0,0,1,61.66-42.36h2264.9L5881.42,2098c36.37,0,65.88,29.34,65.88,65.47Z"/><g class="cls-14"><path class="cls-19" d="M5986,2121.23V3562.79l-38.74-1399.3c0-36.13-29.51-65.47-65.88-65.47l-1862.66-42.25H5920.15C5956.53,2055.77,5986,2085.1,5986,2121.23Z"/></g><g class="cls-24"><path d="M5867.79,4960.65H1753.86c-36.38,0-65.89-29.33-65.89-65.46v-2774a65.06,65.06,0,0,1,4.23-23.1l80.28,2698.46c0,36.13,29.51,65.47,65.89,65.47Z"/></g><g class="cls-25"><path class="cls-19" d="M5796.66,2312.44V4722.68a43.53,43.53,0,0,1-43.6,43.56H1918.48a43.59,43.59,0,0,1-43.59-43.56V2312.44a43.58,43.58,0,0,1,43.59-43.56H5753.06a43.53,43.53,0,0,1,43.6,43.56Z"/></g><g class="cls-26"><rect class="cls-4" x="2013.22" y="2437.12" width="3540.42" height="684.16" rx="56.46"/></g><g class="cls-27"><rect class="cls-22" x="2013.22" y="3203.52" width="1738.43" height="314.04" rx="11.73"/></g><g class="cls-26"><rect class="cls-4" x="2013.22" y="3588.59" width="3540.42" height="314.04" rx="44.35"/></g><g class="cls-28"><path d="M5796.66,2312.44V4722.68a43.49,43.49,0,0,1-5.32,20.88l-92.05,22.68H1918.48a43.27,43.27,0,0,1-17.25-3.56l3881.66-2482A43.49,43.49,0,0,1,5796.66,2312.44Z"/></g><g class="cls-27"><rect class="cls-22" x="2013.22" y="3984.88" width="3540.42" height="650.51" rx="11.73"/></g><g class="cls-26"><rect class="cls-19" x="2207.62" y="4373.69" width="3106.75" height="112.16" rx="44.35"/></g><g class="cls-26"><rect class="cls-19" x="2207.62" y="4119.47" width="3106.75" height="112.16" rx="44.35"/></g><g class="cls-29"><rect class="cls-19" x="3213.3" y="4119.47" width="867.35" height="112.16" rx="44.35"/></g><g class="cls-29"><rect class="cls-19" x="3542.29" y="4373.69" width="867.35" height="112.16" rx="44.35"/></g><g class="cls-27"><rect class="cls-22" x="3833.9" y="3203.52" width="1723.48" height="314.04" rx="9.22"/></g><path class="cls-30" d="M5510,3501.46c-66.44-14-103.89-13.29-148.56,2.55s-35.56,100.59,166.26,73Z"/><polygon class="cls-31" points="5481.3 3483.68 5481.3 3593.98 5741.75 3614 5767.1 3615.96 5816.99 3619.79 5839.77 3621.55 5832.19 3598.77 5784.62 3456.11 5757.55 3458.57 5737.26 3460.39 5481.3 3483.68"/><g class="cls-18"><path d="M5741.75,3614l25.34,2c-.19,7.35-.46,14.77-.79,22.19,22.55-1,39-7.68,50.69-18.36a65.74,65.74,0,0,0,15.2-21c35.09-74.94-37.25-230.25-37.25-230.25a249.28,249.28,0,0,0-40.95,51.4c-7.25,12.34-13.51,26.14-16.73,40.48-2.93,12.87-3.39,26.24.07,39.38C5747.7,3539.19,5745.14,3585.06,5741.75,3614Z"/></g><g class="cls-18"><polygon points="5535.32 3478.76 5542.3 3598.67 5480.16 3594.41 5480.16 3483 5535.32 3478.76"/></g><path class="cls-22" d="M5287,2993.63l-86.84,74.49c-20.49-23.16-33.4-38.19-33.4-38.19l77.93-66.8Z"/><path class="cls-30" d="M5235,2971.38l-34.91-30.52s-167-77.93-178.14,0c0,66.8,122.47,44.53,122.47,44.53l32,36.19Z"/><path class="cls-4" d="M5738.34,3055.61l-247.61,674a74.54,74.54,0,0,1-95.66,44.27l-2833.39-1041a74.56,74.56,0,0,1-44.26-95.66l247.61-674a74.52,74.52,0,0,1,95.65-44.26L5694.07,2960a74.56,74.56,0,0,1,44.27,95.65Z"/><path class="cls-19" d="M3458.59,2630.34A351,351,0,0,1,3336.36,2793c-92.22,67.74-215.56,89.42-331,47s-195.43-138.78-221.86-250.11a351,351,0,0,1,12.17-203.13c67.25-183.06,270.18-276.94,453.24-209.69S3525.84,2447.28,3458.59,2630.34Z"/><g class="cls-32"><circle class="cls-4" cx="3149.65" cy="2435.62" r="124.4"/></g><g class="cls-32"><path class="cls-4" d="M3309.24,2746.64c-79.41,58.33-185.63,77-285,40.47a303.72,303.72,0,0,1-191-215.38,342.07,342.07,0,0,1,476.08,174.91Z"/></g><g class="cls-33"><rect class="cls-19" x="3548.66" y="2821.54" width="1891.49" height="132.86" rx="16.47" transform="matrix(0.94, 0.34, -0.34, 0.94, 1271.6, -1372.74)"/></g><g class="cls-34"><rect class="cls-19" x="4226.77" y="2802.85" width="433.54" height="132.86" rx="16.47" transform="translate(1262.04 -1356.34) rotate(20.17)"/></g><g class="cls-33"><rect class="cls-19" x="3458.23" y="3067.68" width="1891.49" height="132.86" rx="16.47" transform="translate(1350.94 -1326.45) rotate(20.17)"/></g><g class="cls-34"><rect class="cls-19" x="3948.53" y="2984.48" width="458.01" height="132.86" rx="16.47" transform="translate(1308.36 -1253.47) rotate(20.17)"/></g><g class="cls-26"><path class="cls-19" d="M5707.66,5529.13c16.62,11.82,42.52,28.34,49.66,21.2,10.12-10.12-8.64-29.84-10.55-31.86,1.59.75,21.63,10.12,31.86-.11,6-6-4.9-22.16-17.48-35.06-27.81,14.6-46.46,45.72-46.46,45.72C5712.35,5529,5710,5529,5707.66,5529.13Z"/></g><g class="cls-18"><path class="cls-19" d="M5737.39,3001.81,2515.11,2681.13a74,74,0,0,1,2.31-43.88l247.61-674a74.52,74.52,0,0,1,95.65-44.26L5694.07,2960A74.23,74.23,0,0,1,5737.39,3001.81Z"/></g><path class="cls-30" d="M5580.22,3207.62c-40.28-54.64-68.72-79-112.6-96.92s-93.47,51.45,75.54,165.13Z"/><polygon class="cls-30" points="6164.51 5509.51 6164.51 5360.97 6047.8 5366.28 6066.36 5530.73 6164.51 5509.51"/><path class="cls-35" d="M5885.49,5644.69l307-6.6-.43-19.8c-.76-3.25-1.43-6.51-2.19-9.86-10.25-48.13-20.17-108.54-20.17-108.54l-89.11,1.91c-9.41.21-18.07,3.17-26,7.6-25.56,14.12-42.26,43.4-42.26,43.4-2.18.05-4.36.1-6.54.24-85.82,3.33-111.76,36.38-118.84,61.9A63.7,63.7,0,0,0,5885.49,5644.69Z"/><path class="cls-36" d="M5885.49,5644.69l307-6.6-.43-19.8c-.76-3.25-1.43-6.51-2.19-9.86l-302.91,6.51A63.7,63.7,0,0,0,5885.49,5644.69Z"/><g class="cls-26"><path class="cls-19" d="M6005.77,5553c15.69,10.66,40.08,25.49,46.57,18.72,9.2-9.61-8.62-27.56-10.44-29.4,1.5.66,20.3,9,29.6-.74,5.43-5.66-5-20.49-16.93-32.22-25.56,14.12-42.26,43.4-42.26,43.4C6010.13,5552.85,6008,5552.9,6005.77,5553Z"/></g><polygon class="cls-30" points="5723.53 5514.52 5732.83 5366.28 5616.01 5364.26 5624.25 5529.56 5723.53 5514.52"/><path class="cls-35" d="M5436.6,5632l306.77,12.63.82-19.79c-.56-3.29-1-6.58-1.57-10-7.22-48.67-13.33-109.58-13.33-109.58l-89.07-3.67c-9.4-.39-18.22,2-26.41,5.95-26.39,12.49-44.9,40.67-44.9,40.67-2.17-.09-4.35-.18-6.53-.17-85.86-2.05-113.82,29.32-122.48,54.33A63.58,63.58,0,0,0,5436.6,5632Z"/><path class="cls-36" d="M5436.6,5632l306.77,12.63.82-19.79c-.56-3.29-1-6.58-1.57-10l-302.72-12.47A63.58,63.58,0,0,0,5436.6,5632Z"/><g class="cls-26"><path class="cls-19" d="M5562.38,5548c15,11.62,38.4,27.95,45.3,21.6,9.79-9-6.87-28-8.58-30,1.46.76,19.71,10.23,29.6,1.12,5.77-5.31-3.71-20.77-14.89-33.22-26.39,12.49-44.9,40.67-44.9,40.67C5566.74,5548.11,5564.56,5548,5562.38,5548Z"/></g><path class="cls-35" d="M5594.2,5414h159.06s55.35-510.35,91.47-676.59c2.59-12,5.09-22.25,7.48-30.34,12.88-43.77,62.4-151.87,115.79-281.33,93.23-225.82,198.41-516.66,142.26-644.72L5778,3805.79s-148.44,622.11-183.8,774.08S5594.2,5414,5594.2,5414Z"/><g class="cls-37"><path d="M5837.71,4772.66v-.06c2.13-156.2,10.74-606.24,41.61-780.7,26-147.09,69,189.26,88.68,433.87-53.39,129.46-102.91,237.56-115.79,281.33-2.39,8.09-4.89,18.33-7.48,30.34Z"/></g><path class="cls-35" d="M5903.64,4597.44c31.8,183.81,118.25,816.59,118.25,816.59H6181s10.61-243.88,17.66-562c5.82-260.78,52-649.82,49-880.89-.5-37.49-2.29-70.85-5.75-98.79q-1.84-14.92-4.33-27.67l-134.31-95.43-222.83,66.52S5871.84,4413.63,5903.64,4597.44Z"/><path class="cls-31" d="M5732.93,3955.87c137.38,53.55,288.89,36.32,385.52,18.46l98.79-19.27a45,45,0,0,0,5.64-1.38,46.71,46.71,0,0,0,22.2-16.26c11.63-15,15.14-34.79,10.6-53.23-26-105.6-51.51-408-67.78-593.53-17.23-196.45-179.25-206.8-179.25-206.8l-113.73,3.46s-20.69,6.89-65.49,55.15c-76.37,101.15-82.29,188.7-75.44,277.45,1,12.83,2.23,25.71,3.56,38.65,4.86,47,10.94,94.83,9.84,145.75-.06,3.86-.16,7.75-.3,11.64-.19,7.35-.46,14.77-.79,22.19C5759.81,3791.56,5732.93,3955.87,5732.93,3955.87Z"/><path class="cls-19" d="M5875.68,3992.9c-.23-.82-22.69-85.21-28-337.41-5.25-252,31.5-491.63,31.87-494l7.48,1.16c-.37,2.38-37,241.33-31.79,492.71s27.45,334.74,27.68,335.55Z"/><g class="cls-18"><path d="M5943.55,3283.57l-113.09,103.12-79.83-49.9s0,159.66,73.18,129.73,109.76-59.88,116.42-83.16S5943.55,3283.57,5943.55,3283.57Z"/></g><g class="cls-18"><path d="M5707.39,3423.27c-.16-66.62,53.22,222.86,146.35,232.84,99.44,10.66,266.1-186.27,279.41-229.51,29.18-94.84-186.27,3.33-186.27,3.33L5810.5,3576.28"/></g><path class="cls-31" d="M5994.88,3211.39c-34.47,41.36-162,189.57-162,189.57l-261.95-224L5502,3266.54s248.16,317.1,327.43,368.8,306.76-206.8,306.76-206.8S6177.55,3242.41,5994.88,3211.39Z"/><g class="cls-15"><polygon class="cls-7" points="5620.44 5453.12 5729.83 5414.03 5618.49 5414.03 5620.44 5453.12"/></g><g class="cls-15"><polygon class="cls-7" points="6057.6 5453.12 6164.51 5414.03 6053.19 5414.03 6057.6 5453.12"/></g><g class="cls-18"><polygon points="5611.14 3211.31 5534.27 3307.22 5501.38 3265.5 5570.35 3177.96 5611.14 3211.31"/></g><path class="cls-30" d="M6024,2918.84l-13.65,165s2,34-27,51.48l-27.09,16.3a81.86,81.86,0,0,1-71.89,6.15h0a34.22,34.22,0,0,1-12.59-55.27h0l4.37-22.23,20.54-105.17,5.59-28.54Z"/><g class="cls-38"><path class="cls-7" d="M5987.7,2982.71c-35.88,67-95,91.75-111.5,97.59l20.54-105.17C5934,2957.28,6021,2920.46,5987.7,2982.71Z"/></g><path class="cls-30" d="M5777.41,2857.7c-14.79,120,43.19,192.94,96.31,191.15,88.83-3,179.7-135.66,179.7-135.66,29.22-17.19,48.3-158.23-60.31-197.76S5779.18,2733.45,5777.41,2857.7Z"/><polygon class="cls-19" points="6015.97 3082.47 5884.96 3157.02 5909.87 3196.53 6015.97 3111.65 6015.97 3082.47"/><polygon class="cls-19" points="5872.73 3101.04 5859.47 3114.3 5846.21 3176.21 5884.64 3158.74 5872.73 3101.04"/><path class="cls-39" d="M5994.68,2883.78,5973.09,2788c-.09-.38-82.91-1.67-90.08-2.3-57.85-5.09-94.13.08-138.93-39-35.91-31.33-27.1-86.72-8-124.48,13-25.76,46.31-8.86,66.32-3.34,42.64,11.77,87.31,5.1,130.81,9a181.54,181.54,0,0,1,76.95,25.42c33.14,20.07,61.22,57.14,59.18,97.34-.08,1.56-2.87,13.61-2,14.51,0,0,57.65,62.72-7,118.1C6060.31,2883.31,6021.4,2845,5994.68,2883.78Z"/><circle class="cls-30" cx="6027.9" cy="2879.56" r="49.07"/><g class="cls-1"><path class="cls-19" d="M4834.3,5357.42C4459,5408.6,3320.29,5572,2969.58,5622.37h-40.41A280.43,280.43,0,0,1,3209.56,5342H4742.37A279.22,279.22,0,0,1,4834.3,5357.42Z"/></g><g class="cls-40"><path class="cls-4" d="M8080.15,2480.25l1.43,372.2a38.64,38.64,0,0,1-38.48,38.78l-1564.72,6a38.63,38.63,0,0,1-38.79-38.48l-1.43-372.2a38.64,38.64,0,0,1,38.48-38.79l1564.73-6a38.65,38.65,0,0,1,38.78,38.48Z"/><path class="cls-19" d="M6895.64,2685.4a183.05,183.05,0,0,1-366.1,1.41c-.38-101.09,81.26-183.36,182.35-183.75S6895.25,2584.31,6895.64,2685.4Z"/><g class="cls-32"><circle class="cls-4" cx="6710.36" cy="2646.59" r="64.48"/></g><g class="cls-32"><path class="cls-4" d="M6844.08,2768.88a157.63,157.63,0,0,1-262.91,1,177.32,177.32,0,0,1,262.91-1Z"/></g><g class="cls-33"><rect class="cls-19" x="6955.22" y="2589.05" width="980.5" height="68.87" rx="8.54" transform="translate(-10.02 28.62) rotate(-0.22)"/></g><g class="cls-34"><rect class="cls-19" x="7305" y="2589.15" width="224.73" height="68.87" rx="8.54" transform="translate(-10.02 28.52) rotate(-0.22)"/></g><g class="cls-33"><rect class="cls-19" x="6955.74" y="2724.97" width="980.5" height="68.87" rx="8.54" transform="translate(-10.55 28.63) rotate(-0.22)"/></g><g class="cls-34"><rect class="cls-19" x="7202.22" y="2725.45" width="237.42" height="68.87" rx="8.54" transform="translate(-10.55 28.15) rotate(-0.22)"/></g></g><g class="cls-40"><path class="cls-22" d="M7644.75,3087.41l1.05,273.5a28.39,28.39,0,0,1-28.28,28.5l-1149.81,4.42a28.41,28.41,0,0,1-28.5-28.28L6438.16,3092a28.4,28.4,0,0,1,28.28-28.5l1149.81-4.41a28.4,28.4,0,0,1,28.5,28.28Z"/><path class="cls-19" d="M6774.33,3238.16a134.51,134.51,0,1,1-135-134A133.64,133.64,0,0,1,6774.33,3238.16Z"/><g class="cls-32"><circle class="cls-4" cx="6638.18" cy="3209.64" r="47.38"/></g><g class="cls-32"><path class="cls-4" d="M6736.44,3299.51a115.83,115.83,0,0,1-193.19.74,130.28,130.28,0,0,1,193.19-.74Z"/></g><g class="cls-33"><rect class="cls-19" x="6818.11" y="3167.36" width="720.5" height="50.61" rx="6.27" transform="translate(-12.21 27.6) rotate(-0.22)"/></g><g class="cls-34"><rect class="cls-19" x="7075.15" y="3167.44" width="165.14" height="50.61" rx="6.27" transform="translate(-12.21 27.52) rotate(-0.22)"/></g><g class="cls-33"><rect class="cls-19" x="6818.49" y="3267.24" width="720.5" height="50.61" rx="6.27" transform="translate(-12.6 27.6) rotate(-0.22)"/></g><g class="cls-34"><rect class="cls-19" x="6999.62" y="3267.59" width="174.47" height="50.61" rx="6.27" transform="translate(-12.6 27.25) rotate(-0.22)"/></g></g><rect class="cls-35" x="1810.5" y="5622.36" width="6034.35" height="48.94" rx="22.94"/><circle class="cls-4" cx="7645.44" cy="4340.33" r="95.49"/><path class="cls-41" d="M7643.49,4504a97.38,97.38,0,1,1,97.38-97.38A97.5,97.5,0,0,1,7643.49,4504Zm0-191a93.6,93.6,0,1,0,93.6,93.6A93.71,93.71,0,0,0,7643.49,4313Z"/><circle class="cls-4" cx="7235.96" cy="2234.52" r="70.89"/><path class="cls-41" d="M7234.51,2356.49a72.78,72.78,0,1,1,72.78-72.78A72.86,72.86,0,0,1,7234.51,2356.49Zm0-141.78a69,69,0,1,0,69,69A69.08,69.08,0,0,0,7234.51,2214.71Z"/><circle class="cls-4" cx="3163.16" cy="5134.19" r="70.89"/><path class="cls-41" d="M3161.72,5256.17a72.79,72.79,0,1,1,72.78-72.78A72.86,72.86,0,0,1,3161.72,5256.17Zm0-141.78a69,69,0,1,0,69,69A69.07,69.07,0,0,0,3161.72,5114.39Z"/><circle class="cls-4" cx="1569.12" cy="4066.3" r="70.89"/><path class="cls-41" d="M1567.68,4188.28a72.79,72.79,0,1,1,72.78-72.79A72.87,72.87,0,0,1,1567.68,4188.28Zm0-141.79a69,69,0,1,0,69,69A69.08,69.08,0,0,0,1567.68,4046.49Z"/><circle class="cls-4" cx="6269.4" cy="2296.88" r="70.89"/><path class="cls-41" d="M6268,2418.85a72.78,72.78,0,1,1,72.79-72.78A72.86,72.86,0,0,1,6268,2418.85Zm0-141.78a69,69,0,1,0,69,69A69.08,69.08,0,0,0,6268,2277.07Z"/><polygon class="cls-22" points="7651.63 3703.36 7569.1 3560.41 7486.57 3703.36 7651.63 3703.36"/><path class="cls-41" d="M7654.9,3646.79H7483.29l85.81-148.62ZM7489.84,3643h158.51l-79.25-137.28Z"/><polygon class="cls-22" points="1401.1 2914.76 1483.63 3057.71 1566.16 2914.76 1401.1 2914.76"/><path class="cls-41" d="M1483.63,3120l-85.8-148.62h171.61Zm-79.25-144.84,79.25,137.28,79.26-137.28Z"/><polygon class="cls-22" points="1728.48 5175.26 1811.01 5318.2 1893.54 5175.26 1728.48 5175.26"/><path class="cls-41" d="M1811,5380.45l-85.8-148.62h171.61Zm-79.25-144.84L1811,5372.88l79.26-137.27Z"/><polygon class="cls-22" points="4958.52 1953.42 4875.99 1810.47 4793.46 1953.42 4958.52 1953.42"/><path class="cls-41" d="M4961.79,1896.85H4790.18L4876,1748.23Zm-165.06-3.78h158.51L4876,1755.8Z"/></svg>