<svg id="Layer_1" data-name="Layer 1" xmlns="http://www.w3.org/2000/svg" viewBox="0 0 9000 6000"><defs><style>.cls-1{opacity:0.15;}.cls-2{fill:#54a0ff;}.cls-3{opacity:0.11;}.cls-4{opacity:0.07;}.cls-5{fill:#db731d;}.cls-6{opacity:0.34;}.cls-7{opacity:0.12;}.cls-8{fill:#fff;}.cls-9{opacity:0.1;}.cls-10{fill:#223040;}.cls-11{fill:#76b8ff;}.cls-12{fill:#8ac7ff;}.cls-13{opacity:0.2;}.cls-14{fill:#25197c;}.cls-15{fill:#ff9f42;}.cls-16{opacity:0.46;}.cls-17{opacity:0.78;}.cls-18{opacity:0.47;}.cls-19{opacity:0.37;}.cls-20{fill:#ffb578;}.cls-21{opacity:0.22;}.cls-22{opacity:0.28;}.cls-23{fill:#ffdbc2;}.cls-24{fill:#1b1b1c;}.cls-25{opacity:0.43;}.cls-26{opacity:0.72;}.cls-27{opacity:0.64;}.cls-28{opacity:0.3;}.cls-29{opacity:0.69;}.cls-30{fill:#453e9b;}.cls-31{fill:#b0d6ff;}.cls-32{opacity:0.57;}.cls-33{opacity:0.58;}.cls-34{opacity:0.23;}.cls-35{opacity:0.51;}.cls-36{opacity:0.76;}.cls-37{opacity:0.33;}.cls-38{opacity:0.94;}.cls-39{opacity:0.82;}.cls-40{opacity:0.24;}.cls-41{opacity:0.09;}.cls-42{fill:#422d1c;}.cls-43{fill:#f9ddc5;}.cls-44{fill:#2e86de;}.cls-45{fill:#1a1466;}.cls-46{opacity:0.25;}.cls-47{opacity:0.17;}.cls-48{fill:#1e1147;}.cls-49{opacity:0.21;}</style></defs><g class="cls-1"><path class="cls-2" d="M7094.49,5679.6l-4744.71-11.45c-487.13-1620.68-276.29-2169.94-11.44-2380,616.24-488.72,1854.82,597.53,2887.25-64.84,373.77-239.8,581.29-619.46,1087-648.39,383.39-21.94,674.31,172.79,747.56,225,433.6,309.25,513.83,813.77,553,1060.31C7756.56,4761.76,7242.26,5485.51,7094.49,5679.6Z"/></g><g class="cls-3"><path class="cls-2" d="M6668.42,5679.6l-3844.94-9.28c-394.75-1313.34-223.89-1758.44-9.27-1928.65,499.38-396,1503.08,484.22,2339.72-52.54,302.89-194.32,471.06-502,880.88-525.43,310.68-17.78,546.44,140,605.79,182.35C6992,3596.66,7057,4005.5,7088.76,4205.29,7204.94,4935.82,6788.17,5522.32,6668.42,5679.6Z"/></g><g class="cls-3"><path class="cls-2" d="M6042.21,5679.6l-2522.51-6.09c-259-861.63-146.89-1153.64-6.08-1265.31,327.62-259.83,986.11,317.68,1535-34.47,198.71-127.49,309-329.33,577.9-344.72,203.83-11.66,358.5,91.87,397.44,119.64,230.52,164.41,273.18,432.64,294,563.71C6394.2,5191.63,6120.78,5576.41,6042.21,5679.6Z"/></g><g class="cls-4"><circle class="cls-5" cx="6907.6" cy="2998.3" r="286.06"/></g><g class="cls-6"><path class="cls-2" d="M7735.3,4898.84l0,.31c-23.69,175.36-94.61,410.22-299.34,512.16-236.76,117.85-348.1,204.81-365.28,218.71-1.59,1.26-2.37,1.94-2.37,1.94l-24-50.45-11.83-24.91s57.93-301.18,242.95-466.31c43.32-38.68,93.62-69.86,151.73-88,196.24-61.19,271.69-174.41,300.56-247.91a304.53,304.53,0,0,0,9.81-28.93c7.15-25.14,8-41.09,8-41.09S7751.78,4777.27,7735.3,4898.84Z"/><g class="cls-7"><path class="cls-8" d="M7727.73,4754.35c-17.89,78.15-79,208.47-285.42,272.89-58.12,18.16-108.42,49.35-151.73,88-185,165.14-243,466.31-243,466.31l11.84,24.91,11.18,23.54c-1.59,1.26-2.37,1.94-2.37,1.94l-24-50.45-11.83-24.91s57.93-301.18,242.95-466.31c43.32-38.68,93.62-69.86,151.73-88C7623.41,4941.07,7698.86,4827.85,7727.73,4754.35Z"/></g><g class="cls-9"><path class="cls-10" d="M7275.44,5090.29a590.31,590.31,0,0,1-20.9,77.25c-73.56,212.81-123.4,343.35-145.83,400.58-9,22.88-13.59,34-13.59,34l-50.8-20.62-11.83-24.91S7090.42,5255.42,7275.44,5090.29Z"/></g><path class="cls-11" d="M7224.07,5154.36c-73.56,212.81-123.41,343.35-145.83,400.58-9,22.88-13.6,34-13.6,34l-16.33-6.65-55-22.31s-118.5-293.41-48.88-586.62a695.14,695.14,0,0,1,37.23-113.47c108-252,128.19-408.86,131.84-450.51v-.09c.64-7.37.76-11.08.76-11.08s.34.55.93,1.68c1.8,3.41,6.36,11.87,12.68,24.7.08.15.15.3.22.45C7175.81,4521.79,7325.1,4862.22,7224.07,5154.36Z"/><path class="cls-11" d="M7206,5152c-73.56,212.81-123.41,343.35-145.83,400.58-5.79,14.74-9.78,24.57-11.84,29.72l-55-22.31s-118.5-293.41-48.88-586.62a695.14,695.14,0,0,1,37.23-113.47c108-252,128.19-408.86,131.84-450.51v-.09c.87-4.54,1.42-7.68,1.69-9.4.18-1,.24-1.53.24-1.53s4.77,9.27,12.44,26.23c.08.15.15.3.22.45C7171.57,4521.19,7307,4859.81,7206,5152Z"/><g class="cls-9"><path class="cls-8" d="M7224.07,5154.36c-73.56,212.81-123.41,343.35-145.83,400.58-9,22.88-13.6,34-13.6,34l-16.33-6.65c2.06-5.15,6-15,11.84-29.72,22.42-57.23,72.27-187.77,145.83-400.58,101-292.19-34.41-630.81-77.87-726.95C7175.81,4521.79,7325.1,4862.22,7224.07,5154.36Z"/></g><g class="cls-9"><path class="cls-10" d="M7078.24,5554.94c-9,22.88-13.6,34-13.6,34l-71.32-29s-118.5-293.41-48.88-586.62C7065.72,5177.28,7078.77,5442.42,7078.24,5554.94Z"/></g><path class="cls-12" d="M7034.82,5613l-69.54,82.07s-105.42-150.64-385-396.8c-237-208.58-232.41-556.14-196.92-783.8,20-128.2,49.77-218.36,51.8-224.39-2,10.59-51.9,285,291.5,501.35,278.68,175.53,309,592,309.76,754.72C7036.58,5588,7034.82,5613,7034.82,5613Z"/><path class="cls-12" d="M7036.38,5546.16l-61.06,72.05s-105.42-150.64-385-396.8c-211.6-186.27-230.64-483.38-207-706.93,20-128.2,49.77-218.36,51.8-224.39-2,10.59-51.9,285,291.5,501.35C7005.3,4967,7035.62,5383.39,7036.38,5546.16Z"/><g class="cls-13"><path class="cls-8" d="M7034.82,5613l-69.54,82.07s-105.42-150.64-385-396.8c-237-208.58-232.41-556.14-196.92-783.8-23.68,223.55-4.64,520.66,207,706.93,279.62,246.16,385,396.8,385,396.8l61.06-72.05C7036.58,5588,7034.82,5613,7034.82,5613Z"/></g></g><g class="cls-1"><path d="M4316.6,4489.82l-1855.81-3.94a84.28,84.28,0,0,1-84-90.77l187.88-2569.36a84.29,84.29,0,0,1,84-77.79l1792.78,3.94a84.29,84.29,0,0,1,84,90.78L4400.64,4412A84.29,84.29,0,0,1,4316.6,4489.82Z"/></g><polygon class="cls-14" points="6750.42 3883.15 6246.17 3883.15 6285.56 3449.81 6683.45 3449.81 6750.42 3883.15"/><path class="cls-15" d="M4186.6,4348l-1855.81-3.94a84.27,84.27,0,0,1-84-90.77l187.88-2569.36a84.29,84.29,0,0,1,84-77.79l1792.78,3.94a84.29,84.29,0,0,1,84,90.78L4270.64,4270.22A84.29,84.29,0,0,1,4186.6,4348Z"/><g class="cls-16"><path class="cls-8" d="M3242.14,2681.55l-692.59-8.2a29.67,29.67,0,0,1-29.25-32.26l59.06-818a29.67,29.67,0,0,1,29.87-27.07l692.59,8.2a29.67,29.67,0,0,1,29.24,32.26L3272,2654.47A29.67,29.67,0,0,1,3242.14,2681.55Z"/></g><g class="cls-17"><path class="cls-8" d="M2731.09,2576.4l-67.78-.18a22.75,22.75,0,0,1-21.78-25.32l61.62-626.1a22.76,22.76,0,0,1,23.44-20.17l67.78.18a22.75,22.75,0,0,1,21.78,25.32l-61.62,626.1A22.75,22.75,0,0,1,2731.09,2576.4Z"/></g><g class="cls-18"><path class="cls-8" d="M2916,2581.11l-67.78-.17a22.76,22.76,0,0,1-21.78-25.33l45.39-457.07a22.76,22.76,0,0,1,23.45-20.16l67.77.17a22.76,22.76,0,0,1,21.79,25.32L2939.42,2561A22.75,22.75,0,0,1,2916,2581.11Z"/></g><g class="cls-18"><path class="cls-8" d="M3120.83,2581.11l-67.78-.17a22.77,22.77,0,0,1-21.78-25.33L3068.79,2197a22.75,22.75,0,0,1,23.44-20.17l67.78.18a22.76,22.76,0,0,1,21.78,25.32L3144.27,2561A22.75,22.75,0,0,1,3120.83,2581.11Z"/></g><g class="cls-19"><path class="cls-8" d="M4133.22,2682.5l-680.83-1.39a29.67,29.67,0,0,1-29.58-32l50.53-822.6a29.66,29.66,0,0,1,29.58-27.38l680.82,1.38a29.67,29.67,0,0,1,29.58,32l-50.52,822.6A29.67,29.67,0,0,1,4133.22,2682.5Z"/></g><g class="cls-1"><path d="M3761.53,3454.17H1928.84a125.61,125.61,0,0,1-125.15-136.36l22.94-283.16a125.59,125.59,0,0,1,125.14-114.84H3784.46a125.6,125.6,0,0,1,125.14,136.36l-22.93,283.16A125.61,125.61,0,0,1,3761.53,3454.17Z"/></g><g class="cls-1"><path d="M3700.7,4157.41H1868a125.61,125.61,0,0,1-125.15-136.36l22.94-283.16A125.59,125.59,0,0,1,1891,3623.05H3723.64a125.6,125.6,0,0,1,125.14,136.36l-22.93,283.15A125.62,125.62,0,0,1,3700.7,4157.41Z"/></g><path class="cls-20" d="M3761.53,3401H1928.84a125.61,125.61,0,0,1-125.15-136.36l22.94-283.15a125.6,125.6,0,0,1,125.14-114.85H3784.46A125.6,125.6,0,0,1,3909.6,3003l-22.93,283.16A125.61,125.61,0,0,1,3761.53,3401Z"/><g class="cls-21"><path class="cls-8" d="M3701,3220.11H2610a19,19,0,1,1,0-38H3701a19,19,0,1,1,0,38Z"/></g><g class="cls-22"><path class="cls-8" d="M2413.14,3323.82H1957.2a89.34,89.34,0,0,1-89-97l16.31-201.41a89.35,89.35,0,0,1,89-81.69h455.94a89.35,89.35,0,0,1,89,97l-16.32,201.41A89.34,89.34,0,0,1,2413.14,3323.82Z"/></g><path class="cls-23" d="M3700.8,4093.2H1868.11A125.6,125.6,0,0,1,1743,3956.83l22.93-283.15a125.62,125.62,0,0,1,125.15-114.85H3723.74a125.61,125.61,0,0,1,125.14,136.37L3826,3978.35A125.62,125.62,0,0,1,3700.8,4093.2Z"/><g class="cls-22"><path class="cls-8" d="M2373.74,4029H1917.8a89.35,89.35,0,0,1-89-97l16.32-201.41a89.35,89.35,0,0,1,89-81.7h455.94a89.34,89.34,0,0,1,89,97l-16.31,201.41A89.35,89.35,0,0,1,2373.74,4029Z"/></g><path class="cls-15" d="M6757,2012.5c6.91,133.61-56.9,254-158.22,325.48a154.16,154.16,0,0,0-64.36,107.91L6520,2568.06l-.63,5.31L6250,2583.85l-33.67-161.31a155.41,155.41,0,0,0-58.74-92,373.38,373.38,0,0,1-148.38-285c-7.43-204.91,151.38-377.33,355.61-387.32,1.08-.07,2.16-.11,3.24-.15C6571.93,1649.85,6746.41,1808.43,6757,2012.5Z"/><path class="cls-15" d="M6757,2012.5c6.91,133.61-56.9,254-158.22,325.48a154.16,154.16,0,0,0-64.36,107.91L6520,2568.06l-207.94,8.13-33.67-161.31a155.27,155.27,0,0,0-58.74-92c-86.63-65.53-144.15-168-148.39-285-6.69-184.79,121.76-343.12,296.8-379.81C6571.93,1649.85,6746.41,1808.43,6757,2012.5Z"/><g class="cls-7"><path class="cls-10" d="M6520,2568.06l-.63,5.31L6250,2583.85l-33.67-161.31a155.41,155.41,0,0,0-58.74-92,373.38,373.38,0,0,1-148.38-285c-7.43-204.91,151.38-377.33,355.61-387.32,1.08-.07,2.16-.11,3.24-.15-175,36.69-303.49,195-296.8,379.81,4.24,117,61.76,219.51,148.39,285a155.27,155.27,0,0,1,58.74,92l33.67,161.31Z"/></g><path class="cls-14" d="M6523.63,2550.61l2.18,60.39a140.34,140.34,0,0,1-280.5,10.16l-2.18-60.39Z"/><path class="cls-14" d="M6523.63,2550.61l1.23,34.17a140.34,140.34,0,0,1-280.5,10.17l-1.23-34.18Z"/><g class="cls-13"><path class="cls-24" d="M6524.86,2584.78l1,26.22a140.34,140.34,0,0,1-280.5,10.16l-1-26.21a140.34,140.34,0,0,0,280.5-10.17Z"/></g><g class="cls-25"><ellipse class="cls-8" cx="6560.84" cy="1838.84" rx="64.2" ry="77.86" transform="translate(109.81 4032.05) rotate(-34.43)"/></g><g class="cls-25"><ellipse class="cls-8" cx="6655.46" cy="1954.87" rx="36.72" ry="44.53" transform="matrix(0.85, -0.53, 0.53, 0.85, -22.16, 3832.64)"/></g><g class="cls-26"><path class="cls-8" d="M6193.51,1983.44l29.28-1a3.25,3.25,0,0,1,3.36,3.14l4,120a3.25,3.25,0,0,1-3.14,3.36l-29.28,1a3.26,3.26,0,0,1-3.36-3.14l-4-120A3.26,3.26,0,0,1,6193.51,1983.44Z"/></g><g class="cls-27"><path class="cls-8" d="M6353.82,1973.7l4.3,127.57a3.25,3.25,0,0,1-3.14,3.36l-26.21.88a3.25,3.25,0,0,1-3.36-3.14l-.22-6.5q-9.19,11.7-28.34,12.35a48.82,48.82,0,0,1-24.61-5.41,45,45,0,0,1-18-17.22q-6.81-11.34-7.32-26.52t5.52-26.87a44.62,44.62,0,0,1,16.84-18.2,49.31,49.31,0,0,1,24.19-7q13.35-.45,22.29,5.13a3.22,3.22,0,0,0,4.92-2.86l-1.16-34.44a3.25,3.25,0,0,1,3.14-3.36l27.83-.94A3.25,3.25,0,0,1,6353.82,1973.7ZM6317.58,2074q5.58-6.42,5.2-17.45-.36-10.85-6.26-16.79a19.19,19.19,0,0,0-14.94-5.65,19.51,19.51,0,0,0-14.61,6.64q-5.56,6.35-5.2,17.18.36,11,6.36,17.06a19.31,19.31,0,0,0,15,5.74A19.1,19.1,0,0,0,6317.58,2074Z"/></g><g class="cls-18"><path class="cls-8" d="M6475.43,2060.23l-63.33,2.14a3.23,3.23,0,0,0-2.78,4.74,19.45,19.45,0,0,0,6.76,6.79q6.38,3.85,15.76,3.54A34,34,0,0,0,6444,2075a33.6,33.6,0,0,0,8.05-5,3.22,3.22,0,0,1,4.26.23l14.3,13.92a3.23,3.23,0,0,1,.15,4.53q-13.66,14.11-39.1,15-17.16.57-30.39-5.49a49.47,49.47,0,0,1-4.06-88.14,61.69,61.69,0,0,1,54.2-2.28,46.17,46.17,0,0,1,19.47,16.89q7.34,11.23,7.87,27c0,.19,0,2-.16,5.44A3.27,3.27,0,0,1,6475.43,2060.23ZM6412.49,2032a19.29,19.29,0,0,0-5.3,8.15,3.25,3.25,0,0,0,3.23,4.22l31.53-1.06a3.25,3.25,0,0,0,2.95-4.43,19.26,19.26,0,0,0-5.85-7.77,21.8,21.8,0,0,0-26.56.89Z"/></g><g class="cls-28"><path class="cls-8" d="M6569.55,2008.85q13.2,10.68,14,33.63l1.72,51.14a3.25,3.25,0,0,1-3.14,3.36l-25.48.86a3.26,3.26,0,0,1-3.36-3.14h0a3.22,3.22,0,0,0-5.45-2.24q-7.92,7.58-23.29,8.09-11.39.38-19.83-3.32a29.17,29.17,0,0,1-12.92-10.32,28.41,28.41,0,0,1-4.77-15.31q-.47-13.91,9.93-21.95t32.63-8.79l15.73-.53a3.23,3.23,0,0,0,3.06-4q-3.41-11.52-20.58-10.93a47.69,47.69,0,0,0-14.2,2.73,41.09,41.09,0,0,0-9.23,4.52,3.21,3.21,0,0,1-4.62-1.17l-9.17-17a3.24,3.24,0,0,1,1.05-4.26,67.13,67.13,0,0,1,17-7.41A93.93,93.93,0,0,1,6532,1999Q6556.34,1998.18,6569.55,2008.85Zm-25.81,66.45a16,16,0,0,0,6-8.08,3.55,3.55,0,0,0,.19-1.29l-.15-4.59a3.26,3.26,0,0,0-3.36-3.14l-11.57.39q-15,.51-14.66,10.45a8.74,8.74,0,0,0,3.67,7.11q3.53,2.59,9.49,2.39A18.94,18.94,0,0,0,6543.74,2075.3Z"/></g><g class="cls-16"><path class="cls-15" d="M5907.58,1890.1a19.18,19.18,0,0,1-6.52-1.16L5692.63,1813a19.07,19.07,0,0,1,13.05-35.84l208.43,75.9a19.08,19.08,0,0,1-6.53,37Z"/></g><g class="cls-16"><path class="cls-15" d="M5993,1711.36a19,19,0,0,1-11.23-3.67l-215.39-157.14a19.07,19.07,0,1,1,22.48-30.81l215.39,157.14a19.07,19.07,0,0,1-11.25,34.48Z"/></g><g class="cls-29"><path class="cls-15" d="M6143,1585.61a19.07,19.07,0,0,1-16.43-9.35l-166.91-281.67a19.07,19.07,0,0,1,32.81-19.45l166.91,281.67a19.08,19.08,0,0,1-16.38,28.8Z"/></g><g class="cls-16"><path class="cls-15" d="M6884,1853.39a19.07,19.07,0,0,1-7.13-36.76l205.76-82.87a19.07,19.07,0,0,1,14.25,35.38L6891.15,1852A19.05,19.05,0,0,1,6884,1853.39Z"/></g><g class="cls-16"><path class="cls-15" d="M6792.7,1677.62a19.07,19.07,0,0,1-11.76-34.09l210-164.29a19.07,19.07,0,1,1,23.5,30l-210,164.29A19,19,0,0,1,6792.7,1677.62Z"/></g><g class="cls-29"><path class="cls-15" d="M6638.54,1557a19.08,19.08,0,0,1-16.71-28.24l157.36-287.11a19.07,19.07,0,1,1,33.44,18.33l-157.35,287.12A19.09,19.09,0,0,1,6638.54,1557Z"/></g><path class="cls-15" d="M6372.22,1562.18a19.07,19.07,0,0,1-19.05-18.37l-15.75-429.4a19.07,19.07,0,1,1,38.11-1.4l15.76,429.4a19.07,19.07,0,0,1-18.36,19.76Z"/><polygon class="cls-14" points="6050.31 5675.6 5930.5 5675.6 5922.18 5472.6 6055.71 5470.94 6050.31 5675.6"/><polygon class="cls-30" points="7034.01 5672.3 6914.21 5672.3 6905.89 5469.3 7044.53 5467.64 7034.01 5672.3"/><polygon class="cls-30" points="6294.58 5672.3 6174.78 5672.3 6166.46 5469.3 6305.1 5467.64 6294.58 5672.3"/><polygon class="cls-14" points="6743.52 5675.6 6623.72 5675.6 6615.4 5472.6 6748.93 5470.94 6743.52 5675.6"/><polygon class="cls-2" points="7044.53 5494.05 6093.84 5494.05 6027.82 3883.15 7120.45 3883.15 7044.53 5494.05"/><polygon class="cls-31" points="6872.88 5494.05 5922.18 5494.05 5856.16 3883.15 6932.3 3883.15 6872.88 5494.05"/><g class="cls-32"><polygon class="cls-8" points="6816.76 4410.65 5960.52 4410.65 5948.78 3949.17 6839.68 3949.17 6816.76 4410.65"/></g><g class="cls-32"><polygon class="cls-8" points="6794.77 4926.55 5973.06 4926.55 5961.8 4465.07 6816.76 4465.07 6794.77 4926.55"/></g><g class="cls-32"><polygon class="cls-8" points="6769.21 5418.12 5979.23 5418.12 5968.4 4982.39 6790.35 4982.39 6769.21 5418.12"/></g><polygon class="cls-2" points="6644.06 3883.15 6139.8 3883.15 6179.2 3449.81 6683.45 3449.81 6644.06 3883.15"/><path class="cls-31" d="M6344.05,3473.44h-58.31a7.49,7.49,0,0,1-7.46-8.16l4.37-48.06a7.5,7.5,0,0,1,7.46-6.81h58.31a7.5,7.5,0,0,1,7.46,8.17l-4.37,48.05A7.49,7.49,0,0,1,6344.05,3473.44Z"/><path class="cls-31" d="M6525.26,3473.44H6467a7.48,7.48,0,0,1-7.46-8.16l4.37-48.06a7.49,7.49,0,0,1,7.46-6.81h58.3a7.49,7.49,0,0,1,7.46,8.17l-4.37,48.05A7.48,7.48,0,0,1,6525.26,3473.44Z"/><g class="cls-33"><path class="cls-31" d="M6310.3,3674.45H6209.09a13,13,0,0,1-12.94-14.18l7.58-83.41a13,13,0,0,1,13-11.82h101.2a13,13,0,0,1,12.95,14.18l-7.58,83.41A13,13,0,0,1,6310.3,3674.45Z"/></g><g class="cls-16"><path class="cls-31" d="M6460.74,3674.45H6359.53a13,13,0,0,1-12.94-14.18l7.58-83.41a13,13,0,0,1,12.95-11.82h101.2a13,13,0,0,1,13,14.18l-7.58,83.41A13,13,0,0,1,6460.74,3674.45Z"/></g><g class="cls-6"><path class="cls-31" d="M6611.65,3674.45h-101.2a13,13,0,0,1-12.95-14.18l7.58-83.41A13,13,0,0,1,6518,3565h101.21a13,13,0,0,1,12.94,14.18l-7.58,83.41A13,13,0,0,1,6611.65,3674.45Z"/></g><g class="cls-22"><path class="cls-31" d="M6290.6,3820.21H6189.4a13,13,0,0,1-12.95-14.18l7.58-83.41A13,13,0,0,1,6197,3710.8h101.21a13,13,0,0,1,12.94,14.18l-7.58,83.41A13,13,0,0,1,6290.6,3820.21Z"/></g><g class="cls-34"><path class="cls-31" d="M6441,3820.21h-101.2a13,13,0,0,1-12.95-14.18l7.58-83.41a13,13,0,0,1,12.95-11.82h101.21a13,13,0,0,1,12.94,14.18l-7.58,83.41A13,13,0,0,1,6441,3820.21Z"/></g><g class="cls-3"><path class="cls-31" d="M6592,3820.21H6490.75A13,13,0,0,1,6477.8,3806l7.58-83.41a13,13,0,0,1,12.95-11.82h101.21a13,13,0,0,1,12.94,14.18l-7.58,83.41A13,13,0,0,1,6592,3820.21Z"/></g><path class="cls-5" d="M2119.06,3097l-86,28.43,74.46,28.43-6.79,34.72L1986,3142.83l7.8-38.75,133.09-45.78Z"/><path class="cls-5" d="M2225.22,2999.68h44l-129.06,237h-44Z"/><path class="cls-5" d="M2375.16,3104.08l-7.8,38.75-133.08,45.79,7.8-38.75,86-28.43L2253.65,3093l7-34.71Z"/><g class="cls-35"><path class="cls-8" d="M3720,3087.07H2629a19,19,0,1,1,0-38H3720a19,19,0,0,1,0,38Z"/></g><g class="cls-22"><path class="cls-8" d="M3653.73,3925.27h-1091a19,19,0,1,1,0-38h1091a19,19,0,0,1,0,38Z"/></g><g class="cls-36"><path class="cls-8" d="M3672.73,3792.23h-1091a19,19,0,0,1,0-38h1091a19,19,0,1,1,0,38Z"/></g><g class="cls-18"><path class="cls-8" d="M3589,2549.64c-.46,0-.92,0-1.38,0a19.7,19.7,0,0,1-18.29-21l37.42-541.68a19.7,19.7,0,1,1,39.3,2.72l-37.42,541.67A19.7,19.7,0,0,1,3589,2549.64Z"/></g><g class="cls-37"><path class="cls-8" d="M3774.18,2549.64c-.46,0-.91,0-1.38,0a19.7,19.7,0,0,1-18.29-21l37.42-541.68a19.7,19.7,0,0,1,39.31,2.72l-37.43,541.67A19.7,19.7,0,0,1,3774.18,2549.64Z"/></g><g class="cls-34"><path class="cls-8" d="M3979,2545.7c-.45,0-.91,0-1.38,0a19.7,19.7,0,0,1-18.29-21L3996.79,1983a19.7,19.7,0,1,1,39.3,2.72l-37.43,541.67A19.7,19.7,0,0,1,3979,2545.7Z"/></g><g class="cls-27"><path class="cls-8" d="M3996.78,2303.43c-1.07,0-2.16,0-3.25-.15a35.46,35.46,0,0,1-32.1-38.52l3.94-43.33a35.46,35.46,0,0,1,70.62,6.42l-3.94,43.33A35.46,35.46,0,0,1,3996.78,2303.43Z"/></g><g class="cls-38"><path class="cls-8" d="M3788,2398c-1.08,0-2.16,0-3.25-.14a35.46,35.46,0,0,1-32.1-38.52l3.94-43.34a35.46,35.46,0,0,1,70.62,6.42l-3.94,43.34A35.46,35.46,0,0,1,3788,2398Z"/></g><g class="cls-39"><path class="cls-8" d="M3610.71,2212.82c-1.07,0-2.15-.05-3.25-.15a35.46,35.46,0,0,1-32.1-38.52l3.94-43.33a35.46,35.46,0,0,1,70.62,6.42l-3.94,43.33A35.45,35.45,0,0,1,3610.71,2212.82Z"/></g><path class="cls-15" d="M1920.65,4751.8q-7.15,5.25-13.79,11.15V4751.8Z"/><path class="cls-15" d="M2045.17,4714.65c-3.39-.2-6.81-.28-10.28-.28-6.34,0-12.61.32-18.79.91l14.85-14.85Z"/><g class="cls-40"><path class="cls-5" d="M2283.08,3854v-44.13a8.21,8.21,0,0,0-8.21-8.2H2244a8.25,8.25,0,0,1-7.43-4.75c-.56-1.19-1.14-2.36-1.75-3.52a8.22,8.22,0,0,1,1.4-9.65l22.12-22.11a8.21,8.21,0,0,0,0-11.6l-31.2-31.2a8.21,8.21,0,0,0-11.6,0l-25.38,25.38a8.27,8.27,0,0,1-8.77,1.85l-.42-.16a8.28,8.28,0,0,1-5.46-7.73v-35.92a8.21,8.21,0,0,0-8.2-8.21h-44.13a8.21,8.21,0,0,0-8.2,8.21v36.67a8.2,8.2,0,0,1-5.22,7.62l-.1,0a8.2,8.2,0,0,1-8.79-1.82l-25.92-25.93a8.21,8.21,0,0,0-11.6,0l-31.2,31.2a8.21,8.21,0,0,0,0,11.6l23.37,23.36a8.23,8.23,0,0,1,1.47,9.56q-.6,1.2-1.17,2.4a8.2,8.2,0,0,1-7.41,4.71h-32.84a8.21,8.21,0,0,0-8.21,8.2V3854a8.21,8.21,0,0,0,8.21,8.2h27a8.28,8.28,0,0,1,7.9,6c.67,2.25,1.41,4.47,2.24,6.65a8.22,8.22,0,0,1-1.85,8.74l-18.66,18.66a8.21,8.21,0,0,0,0,11.6l31.2,31.2a8.21,8.21,0,0,0,11.6,0l15.36-15.36a8.26,8.26,0,0,1,9.7-1.42,96.61,96.61,0,0,0,9.7,4.42,8.26,8.26,0,0,1,5.27,7.66v21.28a8.21,8.21,0,0,0,8.2,8.21h44.13a8.21,8.21,0,0,0,8.2-8.21v-20.56a8.23,8.23,0,0,1,5.42-7.7,100.89,100.89,0,0,0,10.32-4.5,8.24,8.24,0,0,1,9.58,1.46l14.71,14.72a8.21,8.21,0,0,0,11.6,0l31.2-31.2a8.21,8.21,0,0,0,0-11.6L2241,3885a8.23,8.23,0,0,1-1.81-8.83q1.55-3.91,2.75-8a8.25,8.25,0,0,1,7.88-6h25A8.21,8.21,0,0,0,2283.08,3854Zm-95.6,8.2a47.08,47.08,0,0,1-88.4-22.58c0-1.55.07-3.07.22-4.58a45.14,45.14,0,0,1,.83-5.37,47,47,0,0,1,14.8-25.28l3.36-2.72a46.85,46.85,0,0,1,22.88-8.87c.27,0,.54,0,.8-.05l6.29-.13a7.3,7.3,0,0,1,.81,0,46.83,46.83,0,0,1,24.95,9l1.44,1.1a47.21,47.21,0,0,1,16.37,25.33,47.76,47.76,0,0,1,1.34,9c0,.83.07,1.67.07,2.51A46.91,46.91,0,0,1,2187.48,3862.2Z"/></g><path class="cls-15" d="M2155,4751.8v4.53c-1.93-1.58-3.9-3.07-5.91-4.53Z"/><path class="cls-15" d="M1920.65,4751.8q-7.15,5.25-13.79,11.15V4751.8Z"/><path class="cls-15" d="M2155,4751.8v4.53c-1.93-1.58-3.9-3.07-5.91-4.53Z"/><path class="cls-15" d="M2045.17,4714.65c-3.39-.2-6.81-.28-10.28-.28-6.34,0-12.61.32-18.79.91l14.85-14.85Z"/><path class="cls-15" d="M2155,4751.8v4.53c-1.93-1.58-3.9-3.07-5.91-4.53Z"/><path class="cls-15" d="M1920.65,4751.8q-7.15,5.25-13.79,11.15V4751.8Z"/><path class="cls-15" d="M2045.17,4714.65c-3.39-.2-6.81-.28-10.28-.28-6.34,0-12.61.32-18.79.91l14.85-14.85Z"/><path class="cls-15" d="M2149.13,4751.8c2,1.46,4,2.95,5.91,4.53v-4.53ZM2031,4700.43l-14.85,14.85c6.18-.59,12.45-.91,18.79-.91,3.47,0,6.89.08,10.28.28Zm-124.09,51.37V4763q6.62-5.91,13.79-11.15Z"/><path class="cls-11" d="M3310.25,4545s.36.43,1,1.34c0,1.49-.16,4.25-.4,8.23C3310.57,4548.17,3310.25,4545,3310.25,4545Z"/><path class="cls-11" d="M3324.87,4566.05c-6.86-10.28-11.7-17-13.63-19.73,0-.91,0-1.34,0-1.34S3316.4,4552.38,3324.87,4566.05Z"/><path class="cls-2" d="M3914.6,4928.68v.27c-.65,148-34,350.46-192.78,457.19-183.59,123.4-266.51,207.58-279.25,221-1.19,1.22-1.76,1.87-1.76,1.87l-25.33-39.25L3403,5550.35s15.41-256.06,151-413.06c31.73-36.77,70.07-68.09,116.3-89.45,156.12-72,206.43-174.09,222.42-238.17,2.32-9.23,3.89-17.62,5-25.06,3.21-21.63,2.18-34.94,2.18-34.94S3915.09,4826.07,3914.6,4928.68Z"/><g class="cls-7"><path class="cls-8" d="M3892.67,4809.67c-6.37,66.75-42.92,181.45-207.16,257.25-46.23,21.36-84.57,52.67-116.31,89.44-135.56,157-151,413.06-151,413.06l12.51,19.38,11.83,18.31c-1.19,1.22-1.76,1.87-1.76,1.87l-25.33-39.25L3403,5550.35s15.41-256.06,151-413.06c31.73-36.77,70.07-68.09,116.3-89.45C3826.37,4975.83,3876.68,4873.75,3892.67,4809.67Z"/></g><g class="cls-9"><path class="cls-10" d="M3554,5137.29a493.77,493.77,0,0,1-9,66.33c-37.95,184.47-65.15,298.14-77.54,348-5,20-7.59,29.67-7.59,29.67l-44.37-11.59L3403,5550.35S3418.38,5294.29,3554,5137.29Z"/></g><path class="cls-11" d="M3518.28,5196c-38,184.47-65.15,298.14-77.54,348-5,19.95-7.59,29.68-7.59,29.68l-14.27-3.74-48-12.55s-130.07-230.51-104.1-481.23a582.11,582.11,0,0,1,18.58-98.14c62.29-220.7,62-353,60.53-387.92V4590c-.26-6.18-.57-9.27-.57-9.27s.34.42.95,1.3c1.87,2.63,6.56,9.15,13.2,19.11l.23.34C3409.73,4676.59,3570.43,4942.76,3518.28,5196Z"/><path class="cls-11" d="M3503,5196c-38,184.47-65.15,298.14-77.55,348-3.21,12.85-5.46,21.44-6.6,25.94l-48-12.55s-130.07-230.51-104.1-481.23a582.11,582.11,0,0,1,18.58-98.14c62.29-220.7,62-353,60.53-387.92V4590c.23-3.85.35-6.52.38-8,0-.88,0-1.3,0-1.3s5,7.17,13.16,20.41l.23.34C3406.14,4676.55,3555.17,4942.72,3503,5196Z"/><g class="cls-9"><path class="cls-8" d="M3518.28,5196c-38,184.47-65.15,298.14-77.54,348-5,19.95-7.59,29.68-7.59,29.68l-14.27-3.74c1.14-4.5,3.39-13.09,6.6-25.94,12.4-49.89,39.59-163.56,77.55-348,52.14-253.27-96.89-519.44-143.35-594.47C3409.73,4676.59,3570.43,4942.76,3518.28,5196Z"/></g><g class="cls-9"><path class="cls-10" d="M3440.74,5544c-5,19.95-7.59,29.68-7.59,29.68l-62.29-16.29s-130.07-230.51-104.1-481.23C3389.43,5232.15,3429,5450.64,3440.74,5544Z"/></g><path class="cls-12" d="M3411,5596.89l-48.78,75.6S3258.48,5559,2999.91,5385.11c-219.14-147.31-253-436.06-248.24-628.72,2.67-108.49,17.62-186.49,18.65-191.72-.54,9-12.17,242,296.07,384.23,250.15,115.38,320.41,457.46,338.68,592.37C3409.76,5575.91,3411,5596.89,3411,5596.89Z"/><path class="cls-12" d="M3405.07,5541.27l-42.83,66.37s-103.76-113.51-362.33-287.37c-195.68-131.56-243.67-375.91-248.24-563.88,2.67-108.49,17.62-186.49,18.65-191.72-.54,9-12.17,242,296.07,384.23C3316.54,5064.28,3386.8,5406.36,3405.07,5541.27Z"/><g class="cls-13"><path class="cls-8" d="M3411,5596.89l-48.78,75.6S3258.48,5559,2999.91,5385.11c-219.14-147.31-253-436.06-248.24-628.72,4.57,188,52.56,432.32,248.24,563.88,258.57,173.86,362.33,287.37,362.33,287.37l42.83-66.37C3409.76,5575.91,3411,5596.89,3411,5596.89Z"/></g><path class="cls-14" d="M3820.54,5671.69H2978.85c88.8-107.84,244.12-179.28,420.84-179.28S3731.74,5563.85,3820.54,5671.69Z"/><g class="cls-37"><path class="cls-5" d="M6846.69,2979.49l-83.24,27.5,72,27.51-6.57,33.59-111-44.3,7.54-37.49,128.77-44.3Z"/><path class="cls-5" d="M6949.41,2885.29H6992l-124.87,229.29h-42.6Z"/><path class="cls-5" d="M7094.49,2986.3l-7.55,37.49-128.77,44.3,7.55-37.48L7049,3003.1l-72.05-27.51,6.81-33.59Z"/></g><g class="cls-4"><circle class="cls-5" cx="4895.67" cy="1589" r="230.75"/></g><g class="cls-37"><path class="cls-5" d="M4846.54,1573.83,4779.39,1596l58.12,22.19-5.3,27.1-89.54-35.74,6.09-30.24,103.87-35.73Z"/><path class="cls-5" d="M4929.4,1497.84h34.37L4863,1682.8h-34.37Z"/><path class="cls-5" d="M5046.43,1579.32l-6.09,30.24-103.87,35.74,6.09-30.24,67.15-22.19-58.12-22.19,5.5-27.09Z"/></g><g class="cls-4"><circle class="cls-5" cx="2233.45" cy="5014.04" r="230.75"/></g><g class="cls-37"><path class="cls-5" d="M2184.32,4998.86l-67.15,22.19,58.12,22.19-5.3,27.1-89.54-35.74,6.08-30.24,103.88-35.73Z"/><path class="cls-5" d="M2267.18,4922.88h34.36l-100.73,185h-34.36Z"/><path class="cls-5" d="M2384.21,5004.36l-6.09,30.24-103.87,35.74,6.08-30.24,67.16-22.19-58.12-22.19,5.49-27.09Z"/></g><g class="cls-41"><path class="cls-5" d="M5902.63,3526v-44.13a8.2,8.2,0,0,0-8.2-8.2h-30.92a8.24,8.24,0,0,1-7.43-4.75c-.56-1.19-1.14-2.36-1.75-3.52a8.22,8.22,0,0,1,1.4-9.65l22.12-22.11a8.21,8.21,0,0,0,0-11.6l-31.2-31.2a8.21,8.21,0,0,0-11.6,0l-25.38,25.38a8.25,8.25,0,0,1-8.77,1.84l-.42-.15a8.27,8.27,0,0,1-5.46-7.73v-35.92a8.21,8.21,0,0,0-8.2-8.21h-44.13a8.21,8.21,0,0,0-8.2,8.21v36.67a8.2,8.2,0,0,1-5.22,7.62l-.11,0a8.19,8.19,0,0,1-8.78-1.82l-25.93-25.93a8.21,8.21,0,0,0-11.6,0l-31.19,31.2a8.19,8.19,0,0,0,0,11.6L5675,3457a8.23,8.23,0,0,1,1.48,9.56c-.4.8-.79,1.6-1.18,2.4a8.18,8.18,0,0,1-7.4,4.71h-32.85a8.2,8.2,0,0,0-8.2,8.2V3526a8.2,8.2,0,0,0,8.2,8.2h27a8.27,8.27,0,0,1,7.89,6q1,3.38,2.24,6.65a8.22,8.22,0,0,1-1.84,8.74l-18.66,18.66a8.19,8.19,0,0,0,0,11.6l31.19,31.2a8.21,8.21,0,0,0,11.6,0l15.37-15.37a8.26,8.26,0,0,1,9.69-1.41,98.7,98.7,0,0,0,9.7,4.42,8.25,8.25,0,0,1,5.28,7.66v21.28a8.21,8.21,0,0,0,8.2,8.21h44.13a8.21,8.21,0,0,0,8.2-8.21V3613a8.23,8.23,0,0,1,5.42-7.7,97.72,97.72,0,0,0,10.31-4.51,8.27,8.27,0,0,1,9.59,1.47l14.71,14.72a8.21,8.21,0,0,0,11.6,0l31.2-31.2a8.21,8.21,0,0,0,0-11.6L5860.57,3557a8.21,8.21,0,0,1-1.81-8.83q1.53-3.91,2.75-8a8.25,8.25,0,0,1,7.88-5.95h25A8.2,8.2,0,0,0,5902.63,3526Zm-95.59,8.2a47.39,47.39,0,0,1-12,14.27,46.82,46.82,0,0,1-29.31,10.23,47.57,47.57,0,0,1-11.52-1.41,47.09,47.09,0,0,1-35.56-45.67c0-1.55.08-3.07.22-4.58a45.15,45.15,0,0,1,.84-5.37,47,47,0,0,1,14.8-25.28l3.36-2.72a46.85,46.85,0,0,1,22.88-8.87c.27,0,.53,0,.8-.05l6.28-.13a7.48,7.48,0,0,1,.82,0,46.86,46.86,0,0,1,24.95,9l1.44,1.1a47.12,47.12,0,0,1,16.36,25.33,48.59,48.59,0,0,1,1.35,9c0,.83.06,1.67.06,2.51A46.9,46.9,0,0,1,5807,3534.19Z"/></g><g class="cls-41"><path class="cls-5" d="M4552.45,5158.41v-44.12a8.2,8.2,0,0,0-8.2-8.21h-30.92a8.22,8.22,0,0,1-7.43-4.75c-.56-1.18-1.15-2.36-1.75-3.52a8.21,8.21,0,0,1,1.4-9.64l22.11-22.12a8.19,8.19,0,0,0,0-11.6l-31.19-31.2a8.21,8.21,0,0,0-11.6,0l-25.39,25.39a8.25,8.25,0,0,1-8.76,1.84l-.42-.16a8.27,8.27,0,0,1-5.46-7.73v-35.92a8.21,8.21,0,0,0-8.21-8.2h-44.12a8.21,8.21,0,0,0-8.21,8.2v36.67a8.18,8.18,0,0,1-5.22,7.62l-.1,0a8.17,8.17,0,0,1-8.78-1.82l-25.93-25.93a8.21,8.21,0,0,0-11.6,0l-31.19,31.2a8.19,8.19,0,0,0,0,11.6l23.36,23.36a8.25,8.25,0,0,1,1.48,9.56c-.41.8-.8,1.6-1.18,2.41a8.18,8.18,0,0,1-7.4,4.7h-32.85a8.2,8.2,0,0,0-8.2,8.21v44.12a8.2,8.2,0,0,0,8.2,8.2h26.95a8.27,8.27,0,0,1,7.9,6q1,3.38,2.24,6.64a8.24,8.24,0,0,1-1.84,8.75l-18.66,18.66a8.19,8.19,0,0,0,0,11.6l31.19,31.19a8.19,8.19,0,0,0,11.6,0l15.37-15.36a8.24,8.24,0,0,1,9.69-1.42,101.16,101.16,0,0,0,9.7,4.43,8.23,8.23,0,0,1,5.27,7.65V5266a8.21,8.21,0,0,0,8.21,8.2h44.12a8.21,8.21,0,0,0,8.21-8.2v-20.56a8.24,8.24,0,0,1,5.42-7.71,98.57,98.57,0,0,0,10.31-4.5,8.24,8.24,0,0,1,9.58,1.47l14.72,14.71a8.19,8.19,0,0,0,11.6,0l31.19-31.19a8.19,8.19,0,0,0,0-11.6l-17.27-17.28a8.21,8.21,0,0,1-1.81-8.83q1.53-3.9,2.75-8a8.25,8.25,0,0,1,7.88-6h25A8.2,8.2,0,0,0,4552.45,5158.41Zm-95.59,8.2a47.39,47.39,0,0,1-12,14.27,47,47,0,0,1-60.54-1.61,47.59,47.59,0,0,1-10.1-12.66,46.86,46.86,0,0,1-5.75-22.57c0-1.55.08-3.08.22-4.59a43.49,43.49,0,0,1,.84-5.37,47.07,47.07,0,0,1,14.79-25.28l3.37-2.72a46.76,46.76,0,0,1,22.88-8.86,7,7,0,0,1,.8-.05l6.28-.14c.27,0,.55,0,.82,0a47,47,0,0,1,24.95,9l1.44,1.11a47.19,47.19,0,0,1,16.36,25.32,47.87,47.87,0,0,1,1.34,9c.05.82.07,1.66.07,2.51A46.86,46.86,0,0,1,4456.86,5166.61Z"/></g><rect class="cls-12" x="7468.27" y="3440.73" width="179.26" height="179.26" transform="translate(-282.69 6378.26) rotate(-45)"/><path class="cls-42" d="M7557.9,3769.75,7429.12,3641l128.78-128.78L7686.68,3641ZM7433.16,3641l124.74,124.74L7682.63,3641,7557.9,3516.24Z"/><rect class="cls-15" x="1730.89" y="4429.62" width="143.15" height="143.15" transform="translate(3710.75 43.84) rotate(45)"/><path class="cls-42" d="M1802.46,4693.43l-103.92-103.91,103.92-103.92,103.92,103.92Zm-98.53-103.91,98.53,98.52,98.52-98.52L1802.46,4491Z"/><rect class="cls-15" x="5785.25" y="2362.39" width="143.15" height="143.15" transform="translate(3436.5 -3428.5) rotate(45)"/><path class="cls-42" d="M5856.82,2625.53l-103.24-103.24,103.24-103.24,103.24,103.24Zm-99.2-103.24,99.2,99.19,99.2-99.19-99.2-99.2Z"/><rect class="cls-12" x="1974.99" y="2282.3" width="143.15" height="143.15" transform="translate(-1065.01 2136.57) rotate(-45)"/><path class="cls-42" d="M2046.56,2545.43l-103.24-103.24L2046.56,2339l103.24,103.24Zm-99.2-103.24,99.2,99.2,99.2-99.2-99.2-99.19Z"/><rect class="cls-15" x="3378.57" y="1210.54" width="143.15" height="143.15" transform="translate(1917.11 -2064.09) rotate(45)"/><path class="cls-42" d="M3450.14,1473.68,3346.9,1370.44l103.24-103.24,103.24,103.24Zm-99.2-103.24,99.2,99.19,99.2-99.19-99.2-99.2Z"/><rect class="cls-12" x="7066.78" y="2198.39" width="143.15" height="143.15" transform="translate(485.67 5712.43) rotate(-45)"/><path class="cls-42" d="M7138.35,2461.52l-103.24-103.24L7138.35,2255l103.24,103.24Zm-99.2-103.24,99.2,99.2,99.2-99.2-99.2-99.19Z"/><rect class="cls-12" x="4621.6" y="2299.66" width="98.08" height="98.08" transform="translate(-292.78 3990.56) rotate(-45)"/><path class="cls-42" d="M4670.64,2480.6l-71.37-71.38,71.37-71.38,71.38,71.38Zm-67.33-71.38,67.33,67.33,67.33-67.33-67.33-67.33Z"/><path class="cls-43" d="M4221.77,2761.14,4151.62,2729s-66.21-99.05-113.54-140.17-148.44-4.39-147.41,10.35,37.47,38.05,111.17,32.88c0,0-55.56,126.17,93.92,145.3l72.16,58.44Z"/><path class="cls-2" d="M4996.29,2557.09s-49.26,417-82.48,427.06c-13.36,4.06-30.12,8.78-49,13.92-90.67,24.58-229.8,58-271.4,67.35-101.18,22.45-329-143.54-424.72-207.69-30.12-20.07-48.61-33.53-48.61-33.53l73.91-88.69,55.67,14.48,343.28,89,362-255.63Z"/><path class="cls-44" d="M4249.66,2750l-81,107.73c-30.15-20.1-48.62-33.55-48.62-33.55l73.89-88.66Z"/><polygon class="cls-43" points="5550.46 5517.47 5550.46 5332.63 5405.24 5339.23 5428.34 5543.87 5550.46 5517.47"/><path class="cls-14" d="M5203.28,5685.67l382-8.21-.53-24.64c-.95-4-1.77-8.1-2.72-12.27-12.76-59.88-25.09-135.06-25.09-135.06l-110.9,2.39c-11.7.25-22.47,3.93-32.34,9.44-31.79,17.57-52.58,54-52.58,54-2.71.05-5.42.11-8.13.29-106.79,4.15-139.06,45.27-147.87,77C5199.23,5669.11,5203.28,5685.67,5203.28,5685.67Z"/><path class="cls-45" d="M5203.28,5685.67l382-8.21-.53-24.64c-.95-4-1.77-8.1-2.72-12.27l-376.91,8.1C5199.23,5669.11,5203.28,5685.67,5203.28,5685.67Z"/><g class="cls-46"><path class="cls-8" d="M5353,5571.63c19.51,13.27,49.87,31.72,57.94,23.29,11.46-12-10.72-34.29-13-36.58,1.87.82,25.27,11.17,36.84-.91,6.75-7.05-6.22-25.51-21.08-40.11-31.79,17.57-52.58,54-52.58,54C5358.37,5571.39,5355.66,5571.45,5353,5571.63Z"/></g><polygon class="cls-43" points="4885.5 5510.06 4919.28 5328.34 4775.3 5308.29 4760.61 5513.7 4885.5 5510.06"/><path class="cls-14" d="M4513.24,5611.29l376.82,63,4.06-24.31c-.18-4.15-.23-8.28-.39-12.56-1.39-61.21.47-137.37.47-137.37l-109.39-18.29c-11.55-1.93-22.82-.32-33.54,3.26-34.51,11.35-61.71,43.29-61.71,43.29-2.68-.45-5.35-.9-8.05-1.22-105.69-15.8-145.06,18.6-159.62,48.15C4512.34,5594.27,4513.24,5611.29,4513.24,5611.29Z"/><path class="cls-45" d="M4513.42,5612l377,61.75,4-24.33c-.19-4.15-.26-8.29-.44-12.56l-372-60.92C4512.46,5595,4513.42,5612,4513.42,5612Z"/><g class="cls-46"><path class="cls-8" d="M4681.41,5527.21c16.76,16.61,43.23,40.3,52.71,33.49,13.45-9.67-4.27-35.67-6.08-38.34,1.68,1.15,22.79,15.6,36.38,5.83,7.93-5.69-1.45-26.21-13.39-43.28-34.47,11.47-61.57,43.5-61.57,43.5C4686.78,5528,4684.11,5527.53,4681.41,5527.21Z"/></g><path class="cls-14" d="M4725.77,5389.73l226-2s411.58-1905.5,333.73-2061.11l-411.35,51.71Z"/><path class="cls-14" d="M5355.35,5400.58l231-1.74S5483.6,3832.16,5479.84,3544.63c-.62-46.64,6.45-29.55,2.14-64.32q-2.3-18.55-5.38-34.44l-167.13-118.74L4970.58,3522Z"/><path class="cls-2" d="M5486.05,3561.27c-6.73,8.65-15.67,16.28-27.62,20.23a60.81,60.81,0,0,1-7,1.74l-122.94,24c-112,20.73-283.27,40.77-444.41-10.49a43.45,43.45,0,0,1-29.93-47.68c9.81-66.59,30.09-217.15,36.15-360.11.43-9.27.76-18.5,1-27.62.14-4.85.28-9.7.38-14.49,1.36-63.38-6.21-123-12.28-181.39-1.65-16.09-3.2-32.08-4.42-48.08-8.52-110.43-1.13-219.35,93.86-345.21,55.76-60.09,81.5-68.65,81.5-68.65l141.52-4.28s230.88,15.1,270.54,218.41a416.06,416.06,0,0,1,5.93,42.72c16.89,192.53-11.66,482.32,14.92,650.76,5.27,33.55,10.63,62.15,16,84C5504.87,3518,5500.5,3542.59,5486.05,3561.27Z"/><path class="cls-8" d="M5027.25,3630.07c-.28-1-28.21-105.92-34.75-419.62s39.2-611.59,39.66-614.57l7.54,1.17c-.47,3-46.09,300.37-39.57,613.24,6.51,312.42,34.19,416.75,34.47,417.76Z"/><g class="cls-47"><polygon class="cls-10" points="4767.4 5418.7 4908.4 5386.87 4770.87 5370.13 4767.4 5418.7"/></g><g class="cls-47"><polygon class="cls-10" points="5417.44 5447.29 5550.46 5398.66 5411.95 5398.66 5417.44 5447.29"/></g><path class="cls-43" d="M5211,2293.84l-17,205.35s2.51,42.35-33.57,64.06l-33.7,20.28a101.87,101.87,0,0,1-89.46,7.64h0a42.58,42.58,0,0,1-15.67-68.77h0l5.44-27.66,25.56-130.86,7-35.51Z"/><g class="cls-13"><path class="cls-10" d="M5165.78,2373.31c-44.64,83.33-118.24,114.16-138.74,121.43l25.56-130.86C5099,2341.67,5207.22,2295.85,5165.78,2373.31Z"/></g><path class="cls-43" d="M4904.36,2209.56c-.25,5.46-.61,10.93-1.17,16.37-14.83,144.49,55.88,231.87,120.76,229.68,110.54-3.73,223.61-168.81,223.61-168.81,36.36-21.38,60.09-196.88-75-246.08C5039.79,1992.41,4911,2060.63,4904.36,2209.56Z"/><polygon class="cls-8" points="5200.95 2497.45 5037.94 2590.22 5068.93 2639.38 5200.95 2533.76 5200.95 2497.45"/><polygon class="cls-8" points="5022.72 2520.55 5006.22 2537.06 4989.72 2614.08 5037.54 2592.34 5022.72 2520.55"/><path class="cls-48" d="M5174.47,2250.22l-26.87-119.15c-.1-.48-103.16-2.08-112.09-2.87-72-6.33-113-5-172.87-48.53-65.58-47.71-33.73-107.91-10-154.9,16.19-32.06,57.62-11,82.52-4.15,53.06,14.64,108.64,6.34,162.78,11.24a225.88,225.88,0,0,1,95.74,31.63c41.24,25,76.17,71.11,73.64,121.12-.09,1.95-3.57,16.94-2.54,18.07,0,0,71.74,78-8.66,146.94C5256.13,2249.62,5207.71,2201.91,5174.47,2250.22Z"/><circle class="cls-43" cx="5215.81" cy="2244.96" r="61.06"/><g class="cls-13"><path class="cls-10" d="M4969.06,3231.86a8.06,8.06,0,0,0,1,.47A3.64,3.64,0,0,1,4969.06,3231.86Z"/></g><path class="cls-43" d="M5382.64,3349.37l-61.08,17.87L5274,3419.11s-66.49,56.53-90.1,42.23-80.14-80.78,17.11-134.82l56.85-14,66.49-56.53Z"/><path class="cls-2" d="M5421.88,3341.42c-22.79,9-46.86,18.08-72.5,27.2l-71.2-85.45,44-41.45,198.1-186.42-313.76-282L5401,2594c85.45,71.21,332.87,390.08,361.35,447C5789,3094.32,5753.28,3210,5421.88,3341.42Z"/><path class="cls-44" d="M5421.88,3341.42c-22.79,9-46.86,18.08-72.5,27.2l-71.2-85.45,44-41.45Z"/><g class="cls-37"><polygon class="cls-10" points="4816.26 3010.9 4878.51 2845.74 4878.51 2994.31 4816.26 3010.9"/></g><g class="cls-37"><polygon class="cls-10" points="5473.33 3014.88 5382.64 2927.73 5472.05 3100.69 5473.33 3014.88"/></g><g class="cls-37"><polyline class="cls-10" points="5351.45 3368.27 5479.11 3380.27 5474.18 3319.75 5360.32 3363.37"/></g><g class="cls-49"><polygon points="5153.12 4394.25 5088.28 3955.63 5120.2 4560.73 5153.12 4394.25"/></g></svg>