<svg id="Layer_1" data-name="Layer 1" xmlns="http://www.w3.org/2000/svg" viewBox="0 0 9000 6000"><defs><style>.cls-1{fill:#f2928b;}.cls-2{opacity:0.08;}.cls-3{fill:#25197c;}.cls-4{fill:#fff;}.cls-5{opacity:0.15;}.cls-6{fill:#ea5f2f;}.cls-7{fill:#cc5317;}.cls-8{opacity:0.16;}.cls-9{fill:#df5646;}.cls-10{opacity:0.23;}.cls-11{fill:#f3f3ff;}.cls-12{opacity:0.56;}.cls-13{opacity:0.24;}.cls-14{opacity:0.84;}.cls-15{opacity:0.67;}.cls-16{opacity:0.41;}.cls-17{fill:#f9ddc5;}.cls-18{opacity:0.33;}.cls-19{fill:#223040;}.cls-20{fill:#1a1466;}.cls-21{opacity:0.25;}.cls-22{opacity:0.17;}.cls-23{opacity:0.2;}.cls-24{fill:#1e1147;}.cls-25{opacity:0.21;}.cls-26{opacity:0.4;}.cls-27{fill:#30423d;}.cls-28{opacity:0.36;}.cls-29{opacity:0.28;}</style></defs><path class="cls-1" d="M7769.93,4575.68c-14.81,136.79-46.61,275.12-95,411.68-71.52,202-179.35,400.13-322.16,584q-62.14,80.11-133.21,156.34-18.65,19.93-37.86,39.61H1728.16c-49.33-640.39-34.91-1118.22,19.86-1474.74,23.28-151.67,53.91-281.38,90-392.32q17-52.24,35.56-99c106.2-268.09,248.23-407,391-478.88,308.24-155.29,604.51,9.48,991.7,163q46.59,18.54,95,36.57c160.76,59.79,337.31,113.55,536.29,140.09q54.63,7.35,111.6,11.74c140.94,10.85,292.85,7.35,457.66-17.14a2073.6,2073.6,0,0,0,207.52-41.51q60-15.23,115.68-33.24c273.22-87.69,474.41-219.19,665.19-339.18,37.43-23.55,74.48-46.68,111.6-68.92,158.39-95,317.92-174.25,514.76-205.35q46.05-7.35,95-10.92c68.92-5.05,142.5-4.32,222.07,3.34,442.58,42.72,957.92,289.24,1217.57,750.24,3.66,6.41,7.2,12.9,10.73,19.39q21.16,39.14,39.53,79.61,9.57,21,18.35,42.33c48.82,118.32,80.38,244,95,373.86C7782.79,4340.2,7782.72,4457.4,7769.93,4575.68Z"/><g class="cls-2"><path class="cls-3" d="M3351.31,3521.94V5767.29H1728.16c-49.33-640.39-34.91-1118.22,19.86-1474.74,23.28-151.67,53.91-281.38,90-392.32q17-52.24,35.56-99c106.2-268.09,248.23-407,391-478.88,308.24-155.29,604.51,9.48,991.7,163Q3302.86,3503.91,3351.31,3521.94Z"/><path class="cls-4" d="M3256.27,3485.37v315.86H1873.61c106.2-268.09,248.23-407,391-478.88C2572.81,3167.06,2869.08,3331.83,3256.27,3485.37Z"/><path class="cls-4" d="M3256.27,3900.23V4734H1748V4292.55c23.28-151.67,53.91-281.38,90-392.32Z"/><rect class="cls-3" x="2343.47" y="3900.23" width="283.05" height="93.8"/><rect class="cls-4" x="1748.01" y="4827.76" width="1508.28" height="833.73"/><rect class="cls-3" x="2343.47" y="4827.76" width="283.05" height="93.8"/><path class="cls-3" d="M7769.93,4226.28v349.4c-14.81,136.79-46.61,275.12-95,411.68-71.52,202-179.35,400.13-322.16,584q-62.14,80.11-133.21,156.34H6071.61V2968.43q46.05-7.35,95-10.92c68.92-5.05,142.5-4.32,222.07,3.34,442.58,42.72,957.92,289.24,1217.57,750.24,3.66,6.41,7.2,12.9,10.73,19.39q21.16,39.14,39.53,79.61h18.35v42.33C7723.71,3970.74,7755.27,4096.41,7769.93,4226.28Z"/><path class="cls-1" d="M7606.28,3711.09H6166.64V2957.51c68.92-5.05,142.5-4.32,222.07,3.34C6831.29,3003.57,7346.63,3250.09,7606.28,3711.09Z"/><rect class="cls-4" x="6166.64" y="3810.09" width="1508.25" height="833.73"/><rect class="cls-3" x="6762.09" y="3810.08" width="283.05" height="93.8"/><path class="cls-4" d="M7674.89,4737.61v249.75c-71.52,202-179.35,400.13-322.16,584H6166.64V4737.61Z"/><rect class="cls-3" x="6762.09" y="4737.6" width="283.05" height="93.8"/><path class="cls-3" d="M5556.85,3173.78V4829.27H3887.6V3662q54.63,7.35,111.6,11.74c140.94,10.85,292.85,7.35,457.66-17.14a2073.6,2073.6,0,0,0,207.52-41.51q60-15.23,115.68-33.24c273.22-87.69,474.41-219.19,665.19-339.18C5482.68,3219.15,5519.73,3196,5556.85,3173.78Z"/><path class="cls-4" d="M5445.25,3242.7V4691.55H3999.2V3673.77c140.94,10.85,292.85,7.35,457.66-17.14a2073.6,2073.6,0,0,0,207.52-41.51q60-15.23,115.68-33.24C5053.28,3494.19,5254.47,3362.69,5445.25,3242.7Z"/><rect class="cls-3" x="3887.61" y="3799.08" width="1669.23" height="115.69"/><path class="cls-3" d="M4664.38,3615.12q60-15.23,115.68-33.24V4721.83H4664.38Z"/></g><g class="cls-5"><circle class="cls-3" cx="6145.41" cy="1953.96" r="311.88"/></g><g class="cls-5"><circle class="cls-3" cx="6829.14" cy="1966.55" r="311.88"/></g><g class="cls-5"><circle class="cls-3" cx="7089.21" cy="2675.45" r="311.88"/></g><polygon class="cls-6" points="7148.93 5758.1 7117.63 5758.1 6986.32 4596.88 6975.55 4513.49 7078.86 4533.11 7084.59 4596.88 7148.93 5758.1"/><polygon class="cls-7" points="5913.59 5790.61 5944.9 5790.61 6076.2 4629.39 6086.97 4546 5983.66 4565.61 5977.94 4629.39 5913.59 5790.61"/><polygon class="cls-6" points="6390.39 5774.36 6421.7 5774.36 6553.01 4613.13 6563.77 4529.75 6460.46 4549.36 6454.73 4613.13 6390.39 5774.36"/><polygon class="cls-7" points="6617.95 5790.61 6649.26 5790.61 6780.57 4629.39 6791.33 4546 6688.03 4565.61 6682.3 4629.39 6617.95 5790.61"/><path class="cls-7" d="M7352.66,3244l-342.16,1149-49.9,167.63-8.51,28.56-2.49,8-153.23-36.52-341-81.27,25.84-86.36L6792.2,3353.68a162,162,0,0,1,154.47-115.57l377.33-1.79,4.22-.05Z"/><g class="cls-8"><polygon points="7086.35 4393.05 7086.35 4560.69 6796.37 4560.69 6455.41 4479.41 6481.25 4393.05 7086.35 4393.05"/></g><path class="cls-9" d="M5980,4463.5H7086.34a0,0,0,0,1,0,0v157.31a10.31,10.31,0,0,1-10.31,10.31H5980a0,0,0,0,1,0,0V4463.5A0,0,0,0,1,5980,4463.5Z" transform="translate(13066.36 9094.62) rotate(-180)"/><path class="cls-9" d="M6923.82,4580.3l28.28,8.94,131.61,41.45L7453,3390.59a111.41,111.41,0,0,0-73.27-138.05l-27.05-8.53-24.43-7.74-3.85-1.2-.38,1.25Z"/><polygon class="cls-3" points="3994.95 3823.31 3425.53 3823.31 3433.41 3732.7 3958.5 3732.7 3994.95 3823.31"/><polygon class="cls-3" points="3527.82 3823.31 2699.26 3823.31 2508.32 3240.25 3336.88 3240.25 3527.82 3823.31"/><g class="cls-10"><circle class="cls-4" cx="2956.7" cy="3531.78" r="83.54"/></g><path class="cls-11" d="M4334.5,1263.42V2851.29c0,45.72-34.73,82.75-77.6,82.75h-2219c-42.87,0-77.61-37-77.61-82.75V1263.42c0-45.72,34.74-82.75,77.61-82.75h2219C4299.77,1180.67,4334.5,1217.7,4334.5,1263.42Z"/><g class="cls-12"><rect class="cls-3" x="2116.09" y="1642.08" width="841.98" height="675.34" rx="69.41"/></g><path class="cls-3" d="M4334.5,1258.27v266.36H1960.31V1258.27a77.59,77.59,0,0,1,77.61-77.6h2219A77.58,77.58,0,0,1,4334.5,1258.27Z"/><g class="cls-13"><path class="cls-4" d="M2514,1713.39c-151.73,0-274.75,123-274.75,274.75s123,274.75,274.75,274.75a274.6,274.6,0,0,0,274.75-274.75C2788.76,1836.41,2665.74,1713.39,2514,1713.39Zm88,437a184,184,0,0,1-88,22.27c-101.9,0-184.53-82.63-184.53-184.54s82.63-184.53,184.53-184.53,184.53,82.63,184.53,184.53A184.51,184.51,0,0,1,2602,2150.41Z"/></g><g class="cls-12"><path class="cls-4" d="M2604.84,2247.52a274.63,274.63,0,0,1-96.51,15.32c-150.48-3.05-271.69-129.18-269-279.65,2.32-130.89,96.19-239.47,220.29-264.41,28.09-5.64,54.42,15.52,54.42,44.18h0a45.09,45.09,0,0,1-36.29,44.22A184.61,184.61,0,0,0,2330,2001.47c6.27,89.24,77.23,162,166.29,170.37a185.25,185.25,0,0,0,78.67-9.46,45.05,45.05,0,0,1,48.79,12.92h0C2644.64,2199.29,2634.89,2237,2604.84,2247.52Z"/></g><g class="cls-14"><rect class="cls-4" x="2094.54" y="1302.31" width="151.01" height="100.67" rx="10.5"/></g><g class="cls-15"><rect class="cls-4" x="2312.67" y="1302.31" width="151.01" height="100.67" rx="10.5"/></g><g class="cls-16"><rect class="cls-4" x="2518.2" y="1302.31" width="151.01" height="100.67" rx="10.5"/></g><g class="cls-12"><rect class="cls-3" x="3092.87" y="1700.81" width="213.93" height="243.29" rx="26.76"/></g><g class="cls-12"><rect class="cls-3" x="3092.87" y="2002.82" width="213.93" height="243.29" rx="26.76"/></g><g class="cls-13"><rect class="cls-3" x="3365.53" y="1767.92" width="763.43" height="113.26" rx="32.81"/></g><g class="cls-13"><rect class="cls-3" x="3365.53" y="1767.92" width="390.1" height="113.26" rx="32.81"/></g><g class="cls-13"><rect class="cls-3" x="3373.92" y="2069.94" width="763.43" height="113.26" rx="32.81"/></g><g class="cls-13"><rect class="cls-3" x="3373.92" y="2069.94" width="587.25" height="113.26" rx="32.81"/></g><g class="cls-13"><rect class="cls-3" x="2115.52" y="2430.68" width="2021.83" height="113.26" rx="32.81"/></g><g class="cls-13"><rect class="cls-3" x="2115.52" y="2430.68" width="1006.72" height="113.26" rx="32.81"/></g><g class="cls-13"><rect class="cls-3" x="2111.32" y="2640.41" width="2021.83" height="113.26" rx="32.81"/></g><g class="cls-13"><rect class="cls-3" x="2111.32" y="2640.41" width="1321.32" height="113.26" rx="32.81"/></g><path class="cls-4" d="M3181,1856.64a13.19,13.19,0,0,1-9.35-3.87l-29.36-29.36a13.22,13.22,0,0,1,18.69-18.69L3182.2,1826l74.73-56a13.21,13.21,0,1,1,15.85,21.14L3188.89,1854A13.18,13.18,0,0,1,3181,1856.64Z"/><path class="cls-4" d="M3181,2167.05a13.19,13.19,0,0,1-9.35-3.87l-29.36-29.37a13.21,13.21,0,1,1,18.69-18.68l21.25,21.25,74.73-56a13.21,13.21,0,1,1,15.85,21.14l-83.89,62.92A13.13,13.13,0,0,1,3181,2167.05Z"/><circle class="cls-3" cx="6145.41" cy="1953.96" r="259.74"/><circle class="cls-3" cx="6827.65" cy="1968.94" r="259.74"/><circle class="cls-3" cx="7087.39" cy="2674.3" r="259.74"/><path class="cls-4" d="M6097.22,1940.52l-55.37,19.62,55.37,19.61v25.35l-85.58-31.59v-26.74l85.58-31.59Z"/><path class="cls-4" d="M6158.14,1874.74h29.34l-57.28,163.51h-29.34Z"/><path class="cls-4" d="M6275,1946.77v26.74l-85.57,31.59v-25.35l55.37-19.61-55.37-19.62v-25.34Z"/><path class="cls-4" d="M6740.48,1932.15V2022h-25.41v-35h-34.65v35H6655v-89.83h25.41v33.75h34.65v-33.75Z"/><path class="cls-4" d="M6777.57,1952.3H6750v-20.15h80.47v20.15H6803V2022h-25.41Z"/><path class="cls-4" d="M6921.05,2022l-.26-47.61-23.1,38.76H6886.4l-23-37.48V2022h-23.49v-89.83h20.92l31.57,51.85,30.8-51.85h20.92l.26,89.83Z"/><path class="cls-4" d="M6962.37,1932.15h25.41v69.69h42.87V2022h-68.28Z"/><path class="cls-4" d="M6958.6,2735.69a56.8,56.8,0,0,1-22.42-21.12,61.73,61.73,0,0,1,0-61.31,56.71,56.71,0,0,1,22.42-21.11q14.26-7.59,32.2-7.59a69.21,69.21,0,0,1,28.21,5.55,54.25,54.25,0,0,1,20.87,16l-20.54,18.59q-11.1-13.38-26.91-13.38a33.31,33.31,0,0,0-16.55,4.08,28.38,28.38,0,0,0-11.25,11.5,38.36,38.36,0,0,0,0,34.07,28.38,28.38,0,0,0,11.25,11.5,33.2,33.2,0,0,0,16.55,4.08q15.82,0,26.91-13.37l20.54,18.58a54.16,54.16,0,0,1-20.87,16,69,69,0,0,1-28.21,5.55Q6972.86,2743.27,6958.6,2735.69Z"/><path class="cls-4" d="M7131.35,2695.82H7103.8v26.9h-25.11v-26.9H7051V2672h27.72v-26.9h25.11V2672h27.55Z"/><path class="cls-4" d="M7232,2695.82H7204.4v26.9h-25.12v-26.9h-27.71V2672h27.71v-26.9h25.12V2672H7232Z"/><path class="cls-17" d="M6247.45,2498.36l61-30.21s87.56-157.62,175.12-70.05c0,0,35-35,70.06,17.51s0,122.59-192.64,140.1l-44.6,21.64Z"/><path class="cls-6" d="M6343.47,2590.73s-21.9,17.33-57.8,44.51c-121.36,91.91-402.45,296.28-537.65,323.25-46.77,9.36-105.84-5.07-167.29-31.25-13.51-5.75-27.14-12-40.73-18.83-15.86-7.85-31.72-16.28-47.4-25.13-139.52-78.57-267.17-188.18-267.17-188.18l154.83-367,350.27,350.26,460.92-184.44,64.43-25.72Z"/><g class="cls-18"><path class="cls-19" d="M5547.55,2908.41c-15.86-7.85-31.71-16.28-47.4-25.13l5.41-173.16Z"/></g><path class="cls-9" d="M6343.45,2590.74s-21.89,17.34-57.79,44.48l-94.22-141.33,64.45-25.74Z"/><path class="cls-17" d="M4395.52,3095.09l-55.41,35.48s-80.26-63.13-191.11-24.23c-73.9,25.94-6.61,52.13,47.71,41.36l36.7,128.22s93.48-41.1,130.43-54.07l78.28-10.44Z"/><polygon class="cls-3" points="4262.49 3364.69 4056.32 3425 3937.77 3016.92 4143.94 2956.62 4262.49 3364.69"/><polygon class="cls-6" points="4964.35 2662.51 4902.68 3148.94 4869.12 3155.14 4856.79 3157.45 4793.45 3169.2 4540.76 3216.18 4450.69 3232.88 4383.62 3065.5 4465.12 3030.27 4794.54 2888.1 4846.77 2698.33 4916.61 2444.59 4964.35 2662.51"/><g class="cls-18"><path class="cls-19" d="M4865.73,2979.89s-7.6,156-8.94,177.56l-63.34,11.75Z"/></g><polygon class="cls-9" points="4540.73 3216.21 4450.71 3232.86 4383.67 3065.49 4465.1 3030.27 4540.73 3216.21"/><polygon class="cls-17" points="5590.2 5581.43 5590.2 5378.14 5430.48 5385.4 5455.89 5610.47 5590.2 5581.43"/><path class="cls-3" d="M5208.36,5766.42l420.09-9-.58-27.1c-1.05-4.45-1.95-8.91-3-13.49-14-65.86-27.6-148.54-27.6-148.54l-122,2.62c-12.87.27-24.72,4.32-35.57,10.39-35,19.32-57.83,59.4-57.83,59.4-3,.07-6,.13-8.94.33-117.45,4.56-152.95,49.79-162.64,84.7C5203.9,5748.21,5208.36,5766.42,5208.36,5766.42Z"/><path class="cls-20" d="M5208.36,5766.42l420.09-9-.58-27.1c-1.05-4.45-1.95-8.91-3-13.49l-414.54,8.9C5203.9,5748.21,5208.36,5766.42,5208.36,5766.42Z"/><g class="cls-21"><path class="cls-4" d="M5373,5641c21.46,14.59,54.84,34.88,63.73,25.61,12.59-13.15-11.8-37.71-14.29-40.23,2.05.9,27.79,12.28,40.52-1,7.42-7.75-6.84-28.05-23.19-44.1-35,19.32-57.83,59.4-57.83,59.4C5378.93,5640.74,5376,5640.8,5373,5641Z"/></g><polygon class="cls-17" points="4858.86 5573.28 4896.01 5373.42 4737.65 5351.36 4721.5 5577.28 4858.86 5573.28"/><path class="cls-3" d="M4449.44,5684.62l414.43,69.3,4.47-26.74c-.19-4.57-.26-9.11-.43-13.81-1.53-67.32.52-151.08.52-151.08l-120.32-20.12c-12.7-2.13-25.09-.35-36.88,3.59-37.95,12.48-67.88,47.6-67.88,47.6-2.94-.49-5.88-1-8.84-1.34-116.25-17.38-159.54,20.46-175.56,53C4448.45,5665.9,4449.44,5684.62,4449.44,5684.62Z"/><path class="cls-20" d="M4449.64,5685.37l414.66,67.9,4.39-26.75c-.22-4.57-.3-9.11-.49-13.81l-409.18-67C4448.58,5666.65,4449.64,5685.37,4449.64,5685.37Z"/><g class="cls-21"><path class="cls-4" d="M4634.4,5592.15c18.43,18.26,47.54,44.32,58,36.82,14.79-10.63-4.7-39.23-6.69-42.16,1.85,1.26,25.07,17.15,40,6.41,8.72-6.26-1.59-28.83-14.73-47.6-37.91,12.61-67.71,47.84-67.71,47.84C4640.3,5593,4637.36,5592.49,4634.4,5592.15Z"/></g><path class="cls-3" d="M4683.18,5440.93l248.6-2.25s452.66-2095.71,367-2266.85l-441.22,59Z"/><path class="cls-3" d="M5375.61,5452.87l254-1.92s-113-1723.06-117.11-2039.29c-.68-51.3,7.1-32.51,2.36-70.74q-2.52-20.41-5.91-37.88l-183.82-130.59-372.71,214.32Z"/><path class="cls-6" d="M5519.36,3430c-7.4,9.53-17.23,17.91-30.38,22.26a68.87,68.87,0,0,1-7.71,1.91l-135.21,26.34c-123.22,22.8-311.55,44.84-488.77-11.53a47.79,47.79,0,0,1-32.92-52.44c10.79-73.24,33.1-238.83,39.76-396.07q.71-15.28,1.09-30.37c.15-5.33.31-10.66.41-15.94,1.5-69.7-6.83-135.22-13.5-199.49-1.81-17.69-3.52-35.29-4.87-52.88-9.36-121.45-1.24-241.25,103.24-379.67,61.32-66.09,89.63-75.5,89.63-75.5l155.65-4.71s253.92,16.61,297.54,240.21a454,454,0,0,1,6.52,47c18.58,211.75-12.82,530.46,16.41,715.72,5.8,36.89,11.7,68.35,17.6,92.37C5540.06,3382.35,5535.24,3409.41,5519.36,3430Z"/><path class="cls-4" d="M5015.16,3505.52c-.31-1.12-31-116.45-38.2-461.41s43.1-672.57,43.61-675.84l7.46,1.16c-.51,3.26-50.68,330.39-43.51,674.52,7.15,343.7,37.61,458.45,37.92,459.57Z"/><g class="cls-22"><polygon class="cls-19" points="4728.97 5472.81 4884.04 5437.8 4732.79 5419.38 4728.97 5472.81"/></g><g class="cls-22"><polygon class="cls-19" points="5443.9 5504.25 5590.2 5450.76 5437.86 5450.76 5443.9 5504.25"/></g><path class="cls-17" d="M5216.82,2036l-18.67,225.85s2.77,46.58-36.92,70.45l-37.07,22.31a112.05,112.05,0,0,1-98.39,8.41h0a46.85,46.85,0,0,1-17.23-75.64h0l6-30.42L5042.64,2113l7.65-39.06Z"/><g class="cls-23"><path class="cls-19" d="M5167.12,2123.42c-49.1,91.65-130,125.55-152.59,133.55L5042.64,2113C5093.67,2088.61,5212.69,2038.23,5167.12,2123.42Z"/></g><path class="cls-17" d="M4879.6,1943.32c-.27,6-.67,12-1.28,18-16.32,158.92,61.45,255,132.81,252.61,121.57-4.1,245.93-185.66,245.93-185.66,40-23.52,66.09-216.54-82.54-270.64C5028.55,1704.49,4886.9,1779.52,4879.6,1943.32Z"/><polygon class="cls-4" points="5205.8 2259.95 5026.52 2361.97 5060.6 2416.04 5205.8 2299.88 5205.8 2259.95"/><polygon class="cls-4" points="5009.78 2285.36 4991.63 2303.51 4973.48 2388.22 5026.08 2364.31 5009.78 2285.36"/><path class="cls-24" d="M5176.68,1988l-29.55-131c-.12-.53-113.47-2.29-123.29-3.16-79.16-7-124.32-5.51-190.12-53.38-72.13-52.47-37.1-118.68-11-170.36,17.81-35.26,63.37-12.13,90.76-4.57,58.35,16.11,119.49,7,179,12.37a248.38,248.38,0,0,1,105.3,34.79c45.36,27.47,83.78,78.2,81,133.21-.11,2.14-3.93,18.63-2.8,19.87,0,0,78.9,85.82-9.52,161.61C5266.49,1987.38,5213.24,1934.91,5176.68,1988Z"/><circle class="cls-17" cx="5222.14" cy="1982.25" r="67.16"/><g class="cls-23"><path class="cls-19" d="M4950.76,3067.67c.21.1.57.31,1.08.52A4.31,4.31,0,0,1,4950.76,3067.67Z"/></g><g class="cls-25"><polygon points="5153.2 4346.09 5081.88 3863.69 5116.99 4529.19 5153.2 4346.09"/></g><g class="cls-26"><circle class="cls-1" cx="1747.03" cy="3336.33" r="109.31"/></g><path class="cls-27" d="M1748.62,3544.16A111.2,111.2,0,1,1,1859.81,3433,111.32,111.32,0,0,1,1748.62,3544.16Zm0-218.62A107.43,107.43,0,1,0,1856,3433,107.55,107.55,0,0,0,1748.62,3325.54Z"/><g class="cls-28"><circle class="cls-3" cx="3748.07" cy="4499.19" r="109.31"/></g><path class="cls-27" d="M3749.66,4707a111.2,111.2,0,1,1,111.19-111.2A111.32,111.32,0,0,1,3749.66,4707Zm0-218.62a107.42,107.42,0,1,0,107.42,107.42A107.55,107.55,0,0,0,3749.66,4488.41Z"/><g class="cls-29"><circle class="cls-3" cx="7768.43" cy="3951.75" r="109.31"/></g><path class="cls-27" d="M7771.19,4159.56a111.2,111.2,0,0,1-1.35-222.39h1.39a111.2,111.2,0,0,1,1.36,222.39Zm0-218.62h-1.35a107.42,107.42,0,0,0,1.31,214.84h1.35a107.42,107.42,0,0,0-1.31-214.84Z"/><g class="cls-26"><circle class="cls-1" cx="3672.93" cy="3286.93" r="111.73"/></g><path class="cls-27" d="M3675.75,3499.3a113.62,113.62,0,1,1,113.63-115h0a113.62,113.62,0,0,1-112.2,115Zm.06-223.47h-1.4A110,110,0,0,0,3565.93,3387c.75,60.56,50.63,109.11,111.2,108.47a109.83,109.83,0,0,0,108.47-111.19h0a109.85,109.85,0,0,0-109.79-108.49Z"/><circle class="cls-1" cx="4625.4" cy="1900.58" r="78.04"/><path class="cls-27" d="M4627.35,2049.48a79.93,79.93,0,1,1,79.95-80.91h0a80,80,0,0,1-78.93,80.91Zm0-156.08h-1a76.15,76.15,0,1,0,77.09,75.2h0A76.25,76.25,0,0,0,4627.39,1893.4Z"/><g class="cls-28"><circle class="cls-3" cx="1695.57" cy="2451.81" r="78.04"/></g><path class="cls-27" d="M1697.53,2600.71a79.93,79.93,0,0,1-1-159.85h1a80,80,0,0,1,79.91,78.94h0a80,80,0,0,1-78.93,80.91Zm0-156.08h-1a76.16,76.16,0,1,0,77.09,75.2h0A76.24,76.24,0,0,0,1697.57,2444.63Z"/><g class="cls-26"><circle class="cls-1" cx="6475.41" cy="2919.98" r="78.04"/></g><path class="cls-27" d="M6477.37,3068.88a79.93,79.93,0,1,1,79.95-80.92h0a80,80,0,0,1-78.93,80.92Zm0-156.08h-.95a76.15,76.15,0,1,0,77.09,75.2h0A76.26,76.26,0,0,0,6477.41,2912.8Z"/><g class="cls-29"><circle class="cls-3" cx="5632.36" cy="3130.27" r="69.38"/></g><path class="cls-27" d="M5633.36,3262.88a71.27,71.27,0,1,1,71.28-71.27A71.36,71.36,0,0,1,5633.36,3262.88Zm0-138.76a67.5,67.5,0,1,0,67.5,67.49A67.57,67.57,0,0,0,5633.36,3124.12Z"/><polygon class="cls-7" points="2721.9 3965.93 2708.36 4060.48 2464.27 5760.76 2429.92 5760.76 2597.77 4060.48 2604.33 3993.89 2721.9 3965.93"/><polygon class="cls-7" points="3436.89 5760.76 3401.94 5760.76 3166.52 4060.48 3147.55 3923.4 3262.53 3993.89 3269.08 4060.48 3436.89 5760.76"/><polygon class="cls-7" points="4951.48 3965.93 4938.05 4060.48 4695.8 5763.52 4661.45 5763.52 4829.57 4060.48 4835.86 3996.71 4951.48 3965.93"/><polygon class="cls-7" points="5668.42 5763.52 5634.06 5763.52 5392.47 4060.48 5380.66 3977.09 5494.01 3996.71 5500.29 4060.48 5668.42 5763.52"/><g class="cls-8"><polygon points="2604.33 3993.89 2721.9 3965.93 2708.36 4060.48 2597.77 4060.48 2604.33 3993.89"/></g><g class="cls-8"><polygon points="3262.53 3993.89 3269.08 4060.48 3166.52 4060.48 3147.55 3923.4 3262.53 3993.89"/></g><g class="cls-8"><polygon points="4835.86 3996.71 4951.48 3965.93 4938.05 4060.48 4829.57 4060.48 4835.86 3996.71"/></g><g class="cls-8"><polygon points="5500.29 4060.48 5392.47 4060.48 5380.66 3977.09 5494.01 3996.71 5500.29 4060.48"/></g><rect class="cls-7" x="2197.97" y="3823.81" width="3784.65" height="171.65"/><polygon class="cls-6" points="5982.62 3823.81 5982.62 3828.58 2321.12 3995.46 2197.97 3995.46 2197.97 3823.81 5982.62 3823.81"/></svg>