<?xml version="1.0" encoding="utf-8"?>
<!-- Generator: Adobe Illustrator 24.2.1, SVG Export Plug-In . SVG Version: 6.00 Build 0)  -->
<svg version="1.1" id="Layer_1" xmlns="http://www.w3.org/2000/svg" xmlns:xlink="http://www.w3.org/1999/xlink" x="0px" y="0px"
	 viewBox="0 0 88.3 28" style="enable-background:new 0 0 88.3 28;" xml:space="preserve">
<style type="text/css">
	.st0{fill:#DF5646;}
	.st1{fill:#1D2043;}
	.st2{font-family:'PlayfairDisplay-Regular';}
	.st3{font-size:12.4323px;}
</style>
<path class="st0" d="M78.7,19.2l1.2,1.2l0,0c0.1-0.1,0.3-0.3,0.5-0.4c0.1-0.1,0.3-0.1,0.4-0.2c0.2-0.1,0.3,0,0.5,0l0.1-0.1
	c0.1-0.1,0.3-0.3,0.6-0.4s0.5-0.1,0.7-0.1c0.1,0,0.1,0,0.2,0l0.3-0.3c0.5-0.5,1.2-0.5,1.7,0l0.1,0.1l1,1.2c0.2,0.2,0.3,0.5,0.4,0.8
	l0.4,1.6c0.1,0.3,0,0.6-0.2,0.9l-2.7,2.7c-0.2,0.2-0.6,0.3-0.9,0.2l-1.5-0.5l-2.8-0.7c-0.5-0.1-0.8-0.6-0.6-1.1
	c0.1-0.4,0.5-0.7,0.9-0.7h1.3l-2.8-2.8c-0.4-0.4-0.4-1,0-1.5C77.7,18.8,78.3,18.8,78.7,19.2z"/>
<text transform="matrix(1 0 0 1 4.1927 17.2689)"><tspan x="0" y="0" class="st1 st2 st3">Hugo</tspan><tspan x="30" y="0" class="st2 st3"> </tspan><tspan x="33.1" y="0" class="st0 st2 st3">Mariano</tspan></text>
</svg>
